<mxfile host="Electron" modified="2024-02-05T15:25:14.894Z" agent="Mozilla/5.0 (Macintosh; Intel Mac OS X 10_15_7) AppleWebKit/537.36 (KHTML, like Gecko) draw.io/23.0.2 Chrome/120.0.6099.109 Electron/28.1.0 Safari/537.36" etag="nIo8h6b5EHWWjPH-ddaY" version="23.0.2" type="device" pages="7">
  <diagram id="ADqwHOWVw94lml6pQkJ5" name="Template">
    <mxGraphModel dx="1242" dy="818" grid="1" gridSize="10" guides="1" tooltips="1" connect="1" arrows="1" fold="1" page="1" pageScale="1" pageWidth="850" pageHeight="1100" math="0" shadow="0">
      <root>
        <mxCell id="0" />
        <mxCell id="1" parent="0" />
        <mxCell id="Gw1GEXhopoqKIscW86nt-3" value="Logical Grouping of Processes" style="rounded=0;whiteSpace=wrap;html=1;labelPosition=center;verticalLabelPosition=bottom;align=right;verticalAlign=top;dashed=1;strokeWidth=2;fillColor=#F5F5F5;fontStyle=1" parent="1" vertex="1">
          <mxGeometry x="30" y="420" width="350" height="310" as="geometry" />
        </mxCell>
        <mxCell id="Gw1GEXhopoqKIscW86nt-4" value="&lt;h1 style=&quot;line-height: 100%;&quot;&gt;Task Name&lt;/h1&gt;&lt;p style=&quot;line-height: 100%;&quot;&gt;Short task description&amp;nbsp;&lt;/p&gt;" style="text;html=1;strokeColor=none;fillColor=none;spacing=5;spacingTop=-20;whiteSpace=wrap;overflow=hidden;rounded=0;" parent="1" vertex="1">
          <mxGeometry x="40" y="40" width="190" height="70" as="geometry" />
        </mxCell>
        <mxCell id="Gw1GEXhopoqKIscW86nt-5" value="" style="endArrow=none;html=1;rounded=0;" parent="1" edge="1">
          <mxGeometry width="50" height="50" relative="1" as="geometry">
            <mxPoint x="40" y="120" as="sourcePoint" />
            <mxPoint x="800" y="120" as="targetPoint" />
          </mxGeometry>
        </mxCell>
        <mxCell id="Gw1GEXhopoqKIscW86nt-6" value="&lt;b&gt;Global Storage Accessed&lt;/b&gt;" style="swimlane;fontStyle=0;childLayout=stackLayout;horizontal=1;startSize=30;horizontalStack=0;resizeParent=1;resizeParentMax=0;resizeLast=0;collapsible=1;marginBottom=0;whiteSpace=wrap;html=1;" parent="1" vertex="1">
          <mxGeometry x="40" y="140" width="160" height="120" as="geometry">
            <mxRectangle x="40" y="140" width="60" height="30" as="alternateBounds" />
          </mxGeometry>
        </mxCell>
        <mxCell id="Gw1GEXhopoqKIscW86nt-7" value="Item 1" style="text;strokeColor=none;fillColor=none;align=left;verticalAlign=middle;spacingLeft=4;spacingRight=4;overflow=hidden;points=[[0,0.5],[1,0.5]];portConstraint=eastwest;rotatable=0;whiteSpace=wrap;html=1;" parent="Gw1GEXhopoqKIscW86nt-6" vertex="1">
          <mxGeometry y="30" width="160" height="30" as="geometry" />
        </mxCell>
        <mxCell id="Gw1GEXhopoqKIscW86nt-8" value="Item 2" style="text;strokeColor=none;fillColor=none;align=left;verticalAlign=middle;spacingLeft=4;spacingRight=4;overflow=hidden;points=[[0,0.5],[1,0.5]];portConstraint=eastwest;rotatable=0;whiteSpace=wrap;html=1;" parent="Gw1GEXhopoqKIscW86nt-6" vertex="1">
          <mxGeometry y="60" width="160" height="30" as="geometry" />
        </mxCell>
        <mxCell id="Gw1GEXhopoqKIscW86nt-9" value="Item 3" style="text;strokeColor=none;fillColor=none;align=left;verticalAlign=middle;spacingLeft=4;spacingRight=4;overflow=hidden;points=[[0,0.5],[1,0.5]];portConstraint=eastwest;rotatable=0;whiteSpace=wrap;html=1;" parent="Gw1GEXhopoqKIscW86nt-6" vertex="1">
          <mxGeometry y="90" width="160" height="30" as="geometry" />
        </mxCell>
        <mxCell id="Gw1GEXhopoqKIscW86nt-10" value="&lt;b&gt;Possible Outputs&lt;/b&gt;" style="swimlane;fontStyle=0;childLayout=stackLayout;horizontal=1;startSize=30;horizontalStack=0;resizeParent=1;resizeParentMax=0;resizeLast=0;collapsible=1;marginBottom=0;whiteSpace=wrap;html=1;" parent="1" vertex="1">
          <mxGeometry x="240" y="140" width="160" height="120" as="geometry" />
        </mxCell>
        <mxCell id="Gw1GEXhopoqKIscW86nt-11" value="Item 1" style="text;strokeColor=none;fillColor=none;align=left;verticalAlign=middle;spacingLeft=4;spacingRight=4;overflow=hidden;points=[[0,0.5],[1,0.5]];portConstraint=eastwest;rotatable=0;whiteSpace=wrap;html=1;" parent="Gw1GEXhopoqKIscW86nt-10" vertex="1">
          <mxGeometry y="30" width="160" height="30" as="geometry" />
        </mxCell>
        <mxCell id="Gw1GEXhopoqKIscW86nt-12" value="Item 2" style="text;strokeColor=none;fillColor=none;align=left;verticalAlign=middle;spacingLeft=4;spacingRight=4;overflow=hidden;points=[[0,0.5],[1,0.5]];portConstraint=eastwest;rotatable=0;whiteSpace=wrap;html=1;" parent="Gw1GEXhopoqKIscW86nt-10" vertex="1">
          <mxGeometry y="60" width="160" height="30" as="geometry" />
        </mxCell>
        <mxCell id="Gw1GEXhopoqKIscW86nt-13" value="Item 3" style="text;strokeColor=none;fillColor=none;align=left;verticalAlign=middle;spacingLeft=4;spacingRight=4;overflow=hidden;points=[[0,0.5],[1,0.5]];portConstraint=eastwest;rotatable=0;whiteSpace=wrap;html=1;" parent="Gw1GEXhopoqKIscW86nt-10" vertex="1">
          <mxGeometry y="90" width="160" height="30" as="geometry" />
        </mxCell>
        <mxCell id="Gw1GEXhopoqKIscW86nt-14" value="&lt;b&gt;Possible Spawning Tasks&lt;/b&gt;" style="swimlane;fontStyle=0;childLayout=stackLayout;horizontal=1;startSize=30;horizontalStack=0;resizeParent=1;resizeParentMax=0;resizeLast=0;collapsible=1;marginBottom=0;whiteSpace=wrap;html=1;" parent="1" vertex="1">
          <mxGeometry x="440" y="140" width="160" height="120" as="geometry" />
        </mxCell>
        <mxCell id="Gw1GEXhopoqKIscW86nt-15" value="Item 1" style="text;strokeColor=none;fillColor=none;align=left;verticalAlign=middle;spacingLeft=4;spacingRight=4;overflow=hidden;points=[[0,0.5],[1,0.5]];portConstraint=eastwest;rotatable=0;whiteSpace=wrap;html=1;" parent="Gw1GEXhopoqKIscW86nt-14" vertex="1">
          <mxGeometry y="30" width="160" height="30" as="geometry" />
        </mxCell>
        <mxCell id="Gw1GEXhopoqKIscW86nt-16" value="Item 2" style="text;strokeColor=none;fillColor=none;align=left;verticalAlign=middle;spacingLeft=4;spacingRight=4;overflow=hidden;points=[[0,0.5],[1,0.5]];portConstraint=eastwest;rotatable=0;whiteSpace=wrap;html=1;" parent="Gw1GEXhopoqKIscW86nt-14" vertex="1">
          <mxGeometry y="60" width="160" height="30" as="geometry" />
        </mxCell>
        <mxCell id="Gw1GEXhopoqKIscW86nt-17" value="Item 3" style="text;strokeColor=none;fillColor=none;align=left;verticalAlign=middle;spacingLeft=4;spacingRight=4;overflow=hidden;points=[[0,0.5],[1,0.5]];portConstraint=eastwest;rotatable=0;whiteSpace=wrap;html=1;" parent="Gw1GEXhopoqKIscW86nt-14" vertex="1">
          <mxGeometry y="90" width="160" height="30" as="geometry" />
        </mxCell>
        <mxCell id="Gw1GEXhopoqKIscW86nt-18" value="" style="endArrow=none;html=1;rounded=0;" parent="1" edge="1">
          <mxGeometry width="50" height="50" relative="1" as="geometry">
            <mxPoint x="40" y="280" as="sourcePoint" />
            <mxPoint x="800" y="280" as="targetPoint" />
          </mxGeometry>
        </mxCell>
        <mxCell id="5UbT9-wJnYh9C3beu7bm-3" style="edgeStyle=orthogonalEdgeStyle;rounded=0;orthogonalLoop=1;jettySize=auto;html=1;" parent="1" source="Gw1GEXhopoqKIscW86nt-19" target="5UbT9-wJnYh9C3beu7bm-1" edge="1">
          <mxGeometry relative="1" as="geometry" />
        </mxCell>
        <mxCell id="Gw1GEXhopoqKIscW86nt-19" value="Input Event" style="rounded=1;whiteSpace=wrap;html=1;fillColor=#fff2cc;strokeColor=#d6b656;arcSize=50;strokeWidth=2;" parent="1" vertex="1">
          <mxGeometry x="40" y="320" width="120" height="60" as="geometry" />
        </mxCell>
        <mxCell id="5UbT9-wJnYh9C3beu7bm-7" value="" style="edgeStyle=orthogonalEdgeStyle;rounded=0;orthogonalLoop=1;jettySize=auto;html=1;" parent="1" source="5UbT9-wJnYh9C3beu7bm-1" target="5UbT9-wJnYh9C3beu7bm-6" edge="1">
          <mxGeometry relative="1" as="geometry" />
        </mxCell>
        <mxCell id="5UbT9-wJnYh9C3beu7bm-8" value="Yes" style="edgeLabel;html=1;align=center;verticalAlign=middle;resizable=0;points=[];" parent="5UbT9-wJnYh9C3beu7bm-7" vertex="1" connectable="0">
          <mxGeometry x="-0.05" y="1" relative="1" as="geometry">
            <mxPoint as="offset" />
          </mxGeometry>
        </mxCell>
        <mxCell id="5UbT9-wJnYh9C3beu7bm-1" value="Does some condition hold?" style="whiteSpace=wrap;html=1;rounded=0;fillColor=#dae8fc;strokeColor=#6c8ebf;strokeWidth=2;" parent="1" vertex="1">
          <mxGeometry x="40" y="450" width="120" height="60" as="geometry" />
        </mxCell>
        <mxCell id="5UbT9-wJnYh9C3beu7bm-2" value="Exit process with error message" style="whiteSpace=wrap;html=1;fillColor=#f8cecc;strokeColor=#b85450;rounded=1;arcSize=50;verticalLabelPosition=bottom;verticalAlign=top;shape=mxgraph.flowchart.or;strokeWidth=6;" parent="1" vertex="1">
          <mxGeometry x="240" y="450" width="60" height="60" as="geometry" />
        </mxCell>
        <mxCell id="5UbT9-wJnYh9C3beu7bm-4" style="edgeStyle=orthogonalEdgeStyle;rounded=0;orthogonalLoop=1;jettySize=auto;html=1;entryX=0;entryY=0.5;entryDx=0;entryDy=0;entryPerimeter=0;" parent="1" source="5UbT9-wJnYh9C3beu7bm-1" target="5UbT9-wJnYh9C3beu7bm-2" edge="1">
          <mxGeometry relative="1" as="geometry" />
        </mxCell>
        <mxCell id="5UbT9-wJnYh9C3beu7bm-5" value="No" style="edgeLabel;html=1;align=center;verticalAlign=middle;resizable=0;points=[];" parent="5UbT9-wJnYh9C3beu7bm-4" vertex="1" connectable="0">
          <mxGeometry x="-0.125" y="-1" relative="1" as="geometry">
            <mxPoint as="offset" />
          </mxGeometry>
        </mxCell>
        <mxCell id="5UbT9-wJnYh9C3beu7bm-10" style="edgeStyle=orthogonalEdgeStyle;rounded=0;orthogonalLoop=1;jettySize=auto;html=1;" parent="1" source="5UbT9-wJnYh9C3beu7bm-6" target="5UbT9-wJnYh9C3beu7bm-9" edge="1">
          <mxGeometry relative="1" as="geometry" />
        </mxCell>
        <mxCell id="5UbT9-wJnYh9C3beu7bm-11" value="No" style="edgeLabel;html=1;align=center;verticalAlign=middle;resizable=0;points=[];" parent="5UbT9-wJnYh9C3beu7bm-10" vertex="1" connectable="0">
          <mxGeometry x="-0.075" y="1" relative="1" as="geometry">
            <mxPoint as="offset" />
          </mxGeometry>
        </mxCell>
        <mxCell id="8s-PhM_DvJ5RgE2YnVnQ-3" style="edgeStyle=orthogonalEdgeStyle;rounded=0;orthogonalLoop=1;jettySize=auto;html=1;" parent="1" source="5UbT9-wJnYh9C3beu7bm-6" target="8s-PhM_DvJ5RgE2YnVnQ-1" edge="1">
          <mxGeometry relative="1" as="geometry" />
        </mxCell>
        <mxCell id="8s-PhM_DvJ5RgE2YnVnQ-4" value="Yes" style="edgeLabel;html=1;align=center;verticalAlign=middle;resizable=0;points=[];" parent="8s-PhM_DvJ5RgE2YnVnQ-3" vertex="1" connectable="0">
          <mxGeometry x="-0.0889" y="-2" relative="1" as="geometry">
            <mxPoint as="offset" />
          </mxGeometry>
        </mxCell>
        <mxCell id="5UbT9-wJnYh9C3beu7bm-6" value="Does some other condition hold?" style="whiteSpace=wrap;html=1;rounded=0;fillColor=#dae8fc;strokeColor=#6c8ebf;strokeWidth=2;" parent="1" vertex="1">
          <mxGeometry x="40" y="590" width="120" height="60" as="geometry" />
        </mxCell>
        <mxCell id="5UbT9-wJnYh9C3beu7bm-9" value="Exit process with error message" style="whiteSpace=wrap;html=1;fillColor=#f8cecc;strokeColor=#b85450;rounded=1;arcSize=50;verticalLabelPosition=bottom;verticalAlign=top;shape=mxgraph.flowchart.or;strokeWidth=6;" parent="1" vertex="1">
          <mxGeometry x="240" y="590" width="60" height="60" as="geometry" />
        </mxCell>
        <mxCell id="sJrJ8oiDatTP34CeRkIr-2" style="edgeStyle=orthogonalEdgeStyle;rounded=0;orthogonalLoop=1;jettySize=auto;html=1;" parent="1" source="8s-PhM_DvJ5RgE2YnVnQ-1" target="sJrJ8oiDatTP34CeRkIr-1" edge="1">
          <mxGeometry relative="1" as="geometry" />
        </mxCell>
        <mxCell id="8s-PhM_DvJ5RgE2YnVnQ-1" value="Spawn, but do not await, some function" style="whiteSpace=wrap;html=1;rounded=0;fillColor=#e1d5e7;strokeColor=#9673a6;strokeWidth=2;shape=process;backgroundOutline=1;" parent="1" vertex="1">
          <mxGeometry x="40" y="740" width="120" height="60" as="geometry" />
        </mxCell>
        <mxCell id="8s-PhM_DvJ5RgE2YnVnQ-2" value="" style="html=1;verticalLabelPosition=bottom;align=center;labelBackgroundColor=#ffffff;verticalAlign=top;strokeWidth=2;strokeColor=#0080F0;shadow=0;dashed=0;shape=mxgraph.ios7.icons.add;" parent="1" vertex="1">
          <mxGeometry x="27.75" y="730" width="30" height="30" as="geometry" />
        </mxCell>
        <mxCell id="pmYe0RTUHUnnCA5H-JGx-2" style="edgeStyle=orthogonalEdgeStyle;rounded=0;orthogonalLoop=1;jettySize=auto;html=1;" parent="1" source="sJrJ8oiDatTP34CeRkIr-1" target="pmYe0RTUHUnnCA5H-JGx-1" edge="1">
          <mxGeometry relative="1" as="geometry" />
        </mxCell>
        <mxCell id="OzOgNtlxmTl5KpB5O-pj-2" style="edgeStyle=orthogonalEdgeStyle;rounded=0;orthogonalLoop=1;jettySize=auto;html=1;entryX=0.5;entryY=0;entryDx=0;entryDy=0;" parent="1" source="sJrJ8oiDatTP34CeRkIr-1" target="OzOgNtlxmTl5KpB5O-pj-1" edge="1">
          <mxGeometry relative="1" as="geometry" />
        </mxCell>
        <mxCell id="sJrJ8oiDatTP34CeRkIr-1" value="Store something in global storage" style="strokeWidth=2;html=1;shape=datastore;whiteSpace=wrap;labelPosition=center;verticalLabelPosition=middle;align=center;verticalAlign=top;fillColor=#ffe6cc;strokeColor=#d79b00;" parent="1" vertex="1">
          <mxGeometry x="55" y="880" width="90" height="100" as="geometry" />
        </mxCell>
        <mxCell id="pmYe0RTUHUnnCA5H-JGx-1" value="Exit with success code" style="whiteSpace=wrap;html=1;fillColor=#d5e8d4;strokeColor=#82b366;rounded=1;arcSize=50;verticalLabelPosition=bottom;verticalAlign=top;shape=mxgraph.flowchart.or;strokeWidth=6;" parent="1" vertex="1">
          <mxGeometry x="70" y="1060" width="60" height="60" as="geometry" />
        </mxCell>
        <mxCell id="OzOgNtlxmTl5KpB5O-pj-1" value="Emit some event" style="whiteSpace=wrap;html=1;fillColor=#d5e8d4;strokeColor=#82b366;rounded=1;arcSize=50;strokeWidth=2;" parent="1" vertex="1">
          <mxGeometry x="240" y="1070" width="170" height="60" as="geometry" />
        </mxCell>
      </root>
    </mxGraphModel>
  </diagram>
  <diagram name="QuorumProposalRecv" id="6pLFEFLZkfARmtt1aru9">
    <mxGraphModel dx="1242" dy="818" grid="1" gridSize="10" guides="1" tooltips="1" connect="1" arrows="1" fold="1" page="1" pageScale="1" pageWidth="850" pageHeight="1100" math="0" shadow="0">
      <root>
        <mxCell id="0" />
        <mxCell id="1" value="Diagram" parent="0" />
        <mxCell id="KNZv4TGAp9zdyb55509J-61" value="&lt;b&gt;Proposal Validation&lt;/b&gt;" style="rounded=0;whiteSpace=wrap;html=1;labelPosition=center;verticalLabelPosition=bottom;align=right;verticalAlign=top;dashed=1;strokeWidth=2;fillColor=#F5F5F5;" parent="1" vertex="1">
          <mxGeometry x="40" y="1880" width="739.5" height="1310" as="geometry" />
        </mxCell>
        <mxCell id="KNZv4TGAp9zdyb55509J-29" value="&lt;b&gt;View Change Evidence&lt;/b&gt;" style="rounded=0;whiteSpace=wrap;html=1;labelPosition=center;verticalLabelPosition=bottom;align=right;verticalAlign=top;dashed=1;strokeWidth=2;fillColor=#F5F5F5;" parent="1" vertex="1">
          <mxGeometry x="40" y="1000" width="1070" height="800" as="geometry" />
        </mxCell>
        <mxCell id="KNZv4TGAp9zdyb55509J-7" value="&lt;b&gt;Basic Message Validation&lt;/b&gt;" style="rounded=0;whiteSpace=wrap;html=1;labelPosition=center;verticalLabelPosition=bottom;align=right;verticalAlign=top;dashed=1;strokeWidth=2;fillColor=#F5F5F5;" parent="1" vertex="1">
          <mxGeometry x="40" y="460" width="460" height="460" as="geometry" />
        </mxCell>
        <mxCell id="QjXIpsrURDDC34PtH8bY-8" value="&lt;h1 style=&quot;line-height: 100%;&quot;&gt;QuorumProposalRecv&lt;/h1&gt;&lt;p style=&quot;line-height: 100%;&quot;&gt;Task that validates incoming quorum proposals&lt;/p&gt;" style="text;html=1;strokeColor=none;fillColor=none;spacing=5;spacingTop=-20;whiteSpace=wrap;overflow=hidden;rounded=0;" parent="1" vertex="1">
          <mxGeometry x="40" y="40" width="310" height="70" as="geometry" />
        </mxCell>
        <mxCell id="QjXIpsrURDDC34PtH8bY-9" value="" style="endArrow=none;html=1;rounded=0;" parent="1" edge="1">
          <mxGeometry width="50" height="50" relative="1" as="geometry">
            <mxPoint x="40" y="120" as="sourcePoint" />
            <mxPoint x="800" y="120" as="targetPoint" />
          </mxGeometry>
        </mxCell>
        <mxCell id="QjXIpsrURDDC34PtH8bY-10" value="&lt;b&gt;Global Storage Accessed&lt;/b&gt;" style="swimlane;fontStyle=0;childLayout=stackLayout;horizontal=1;startSize=30;horizontalStack=0;resizeParent=1;resizeParentMax=0;resizeLast=0;collapsible=1;marginBottom=0;whiteSpace=wrap;html=1;" parent="1" vertex="1">
          <mxGeometry x="40" y="140" width="160" height="150" as="geometry">
            <mxRectangle x="40" y="140" width="60" height="30" as="alternateBounds" />
          </mxGeometry>
        </mxCell>
        <mxCell id="QjXIpsrURDDC34PtH8bY-11" value="latest_known_view" style="text;strokeColor=none;fillColor=none;align=left;verticalAlign=middle;spacingLeft=4;spacingRight=4;overflow=hidden;points=[[0,0.5],[1,0.5]];portConstraint=eastwest;rotatable=0;whiteSpace=wrap;html=1;" parent="QjXIpsrURDDC34PtH8bY-10" vertex="1">
          <mxGeometry y="30" width="160" height="30" as="geometry" />
        </mxCell>
        <mxCell id="QjXIpsrURDDC34PtH8bY-12" value="latest_voted_view" style="text;strokeColor=none;fillColor=none;align=left;verticalAlign=middle;spacingLeft=4;spacingRight=4;overflow=hidden;points=[[0,0.5],[1,0.5]];portConstraint=eastwest;rotatable=0;whiteSpace=wrap;html=1;" parent="QjXIpsrURDDC34PtH8bY-10" vertex="1">
          <mxGeometry y="60" width="160" height="30" as="geometry" />
        </mxCell>
        <mxCell id="QjXIpsrURDDC34PtH8bY-13" value="locked_qc" style="text;strokeColor=none;fillColor=none;align=left;verticalAlign=middle;spacingLeft=4;spacingRight=4;overflow=hidden;points=[[0,0.5],[1,0.5]];portConstraint=eastwest;rotatable=0;whiteSpace=wrap;html=1;" parent="QjXIpsrURDDC34PtH8bY-10" vertex="1">
          <mxGeometry y="90" width="160" height="30" as="geometry" />
        </mxCell>
        <mxCell id="QjXIpsrURDDC34PtH8bY-24" value="state_map" style="text;strokeColor=none;fillColor=none;align=left;verticalAlign=middle;spacingLeft=4;spacingRight=4;overflow=hidden;points=[[0,0.5],[1,0.5]];portConstraint=eastwest;rotatable=0;whiteSpace=wrap;html=1;" parent="QjXIpsrURDDC34PtH8bY-10" vertex="1">
          <mxGeometry y="120" width="160" height="30" as="geometry" />
        </mxCell>
        <mxCell id="QjXIpsrURDDC34PtH8bY-14" value="&lt;b&gt;Possible Outputs&lt;/b&gt;" style="swimlane;fontStyle=0;childLayout=stackLayout;horizontal=1;startSize=30;horizontalStack=0;resizeParent=1;resizeParentMax=0;resizeLast=0;collapsible=1;marginBottom=0;whiteSpace=wrap;html=1;" parent="1" vertex="1">
          <mxGeometry x="240" y="140" width="220" height="90" as="geometry" />
        </mxCell>
        <mxCell id="QjXIpsrURDDC34PtH8bY-15" value="ViewChange(view)" style="text;strokeColor=none;fillColor=none;align=left;verticalAlign=middle;spacingLeft=4;spacingRight=4;overflow=hidden;points=[[0,0.5],[1,0.5]];portConstraint=eastwest;rotatable=0;whiteSpace=wrap;html=1;" parent="QjXIpsrURDDC34PtH8bY-14" vertex="1">
          <mxGeometry y="30" width="220" height="30" as="geometry" />
        </mxCell>
        <mxCell id="QjXIpsrURDDC34PtH8bY-16" value="QuorumProposalValidated(proposal)" style="text;strokeColor=none;fillColor=none;align=left;verticalAlign=middle;spacingLeft=4;spacingRight=4;overflow=hidden;points=[[0,0.5],[1,0.5]];portConstraint=eastwest;rotatable=0;whiteSpace=wrap;html=1;" parent="QjXIpsrURDDC34PtH8bY-14" vertex="1">
          <mxGeometry y="60" width="220" height="30" as="geometry" />
        </mxCell>
        <mxCell id="QjXIpsrURDDC34PtH8bY-18" value="&lt;b&gt;Possible Spawning Tasks&lt;/b&gt;" style="swimlane;fontStyle=0;childLayout=stackLayout;horizontal=1;startSize=30;horizontalStack=0;resizeParent=1;resizeParentMax=0;resizeLast=0;collapsible=1;marginBottom=0;whiteSpace=wrap;html=1;" parent="1" vertex="1">
          <mxGeometry x="500" y="140" width="160" height="90" as="geometry" />
        </mxCell>
        <mxCell id="QjXIpsrURDDC34PtH8bY-19" value="Determine committed blocks" style="text;strokeColor=none;fillColor=none;align=left;verticalAlign=middle;spacingLeft=4;spacingRight=4;overflow=hidden;points=[[0,0.5],[1,0.5]];portConstraint=eastwest;rotatable=0;whiteSpace=wrap;html=1;" parent="QjXIpsrURDDC34PtH8bY-18" vertex="1">
          <mxGeometry y="30" width="160" height="30" as="geometry" />
        </mxCell>
        <mxCell id="QjXIpsrURDDC34PtH8bY-20" value="Fetch missing leaves" style="text;strokeColor=none;fillColor=none;align=left;verticalAlign=middle;spacingLeft=4;spacingRight=4;overflow=hidden;points=[[0,0.5],[1,0.5]];portConstraint=eastwest;rotatable=0;whiteSpace=wrap;html=1;" parent="QjXIpsrURDDC34PtH8bY-18" vertex="1">
          <mxGeometry y="60" width="160" height="30" as="geometry" />
        </mxCell>
        <mxCell id="QjXIpsrURDDC34PtH8bY-22" value="" style="endArrow=none;html=1;rounded=0;" parent="1" edge="1">
          <mxGeometry width="50" height="50" relative="1" as="geometry">
            <mxPoint x="40" y="310" as="sourcePoint" />
            <mxPoint x="800" y="310" as="targetPoint" />
          </mxGeometry>
        </mxCell>
        <mxCell id="Ap_MR6Gmyh2ZlJMz7Chn-2" style="edgeStyle=orthogonalEdgeStyle;rounded=0;orthogonalLoop=1;jettySize=auto;html=1;" parent="1" source="QjXIpsrURDDC34PtH8bY-23" target="Ap_MR6Gmyh2ZlJMz7Chn-1" edge="1">
          <mxGeometry relative="1" as="geometry" />
        </mxCell>
        <mxCell id="QjXIpsrURDDC34PtH8bY-23" value="QuorumProposalRecv(proposal)" style="rounded=1;whiteSpace=wrap;html=1;fillColor=#fff2cc;strokeColor=#d6b656;arcSize=50;strokeWidth=2;" parent="1" vertex="1">
          <mxGeometry x="40" y="360" width="200" height="60" as="geometry" />
        </mxCell>
        <mxCell id="xfUzociu4RJ8IxwvNbOc-3" value="" style="edgeStyle=orthogonalEdgeStyle;rounded=0;orthogonalLoop=1;jettySize=auto;html=1;" parent="1" source="Ap_MR6Gmyh2ZlJMz7Chn-1" target="xfUzociu4RJ8IxwvNbOc-2" edge="1">
          <mxGeometry relative="1" as="geometry" />
        </mxCell>
        <mxCell id="xfUzociu4RJ8IxwvNbOc-5" value="Yes" style="edgeLabel;html=1;align=center;verticalAlign=middle;resizable=0;points=[];" parent="xfUzociu4RJ8IxwvNbOc-3" vertex="1" connectable="0">
          <mxGeometry x="-0.025" relative="1" as="geometry">
            <mxPoint as="offset" />
          </mxGeometry>
        </mxCell>
        <mxCell id="Ap_MR6Gmyh2ZlJMz7Chn-1" value="Is the proposal&#39;s view greater than or equal to our latest known view?" style="whiteSpace=wrap;html=1;rounded=0;fillColor=#dae8fc;strokeColor=#6c8ebf;strokeWidth=2;" parent="1" vertex="1">
          <mxGeometry x="80" y="500" width="120" height="60" as="geometry" />
        </mxCell>
        <mxCell id="q5EbNtWzx36aGlGEKMRL-1" value="Proposal is too old" style="whiteSpace=wrap;html=1;fillColor=#f8cecc;strokeColor=#b85450;rounded=1;arcSize=50;verticalLabelPosition=bottom;verticalAlign=top;shape=mxgraph.flowchart.or;strokeWidth=6;" parent="1" vertex="1">
          <mxGeometry x="280" y="500" width="60" height="60" as="geometry" />
        </mxCell>
        <mxCell id="xfUzociu4RJ8IxwvNbOc-1" style="edgeStyle=orthogonalEdgeStyle;rounded=0;orthogonalLoop=1;jettySize=auto;html=1;entryX=0;entryY=0.5;entryDx=0;entryDy=0;entryPerimeter=0;" parent="1" source="Ap_MR6Gmyh2ZlJMz7Chn-1" target="q5EbNtWzx36aGlGEKMRL-1" edge="1">
          <mxGeometry relative="1" as="geometry" />
        </mxCell>
        <mxCell id="xfUzociu4RJ8IxwvNbOc-4" value="No" style="edgeLabel;html=1;align=center;verticalAlign=middle;resizable=0;points=[];" parent="xfUzociu4RJ8IxwvNbOc-1" vertex="1" connectable="0">
          <mxGeometry relative="1" as="geometry">
            <mxPoint as="offset" />
          </mxGeometry>
        </mxCell>
        <mxCell id="xfUzociu4RJ8IxwvNbOc-10" value="" style="edgeStyle=orthogonalEdgeStyle;rounded=0;orthogonalLoop=1;jettySize=auto;html=1;" parent="1" source="xfUzociu4RJ8IxwvNbOc-2" target="xfUzociu4RJ8IxwvNbOc-9" edge="1">
          <mxGeometry relative="1" as="geometry" />
        </mxCell>
        <mxCell id="KNZv4TGAp9zdyb55509J-2" value="Yes" style="edgeLabel;html=1;align=center;verticalAlign=middle;resizable=0;points=[];" parent="xfUzociu4RJ8IxwvNbOc-10" vertex="1" connectable="0">
          <mxGeometry x="-0.075" relative="1" as="geometry">
            <mxPoint as="offset" />
          </mxGeometry>
        </mxCell>
        <mxCell id="xfUzociu4RJ8IxwvNbOc-2" value="Is the proposal&#39;s view strictly greater than our latest voted view?" style="whiteSpace=wrap;html=1;rounded=0;fillColor=#dae8fc;strokeColor=#6c8ebf;strokeWidth=2;" parent="1" vertex="1">
          <mxGeometry x="80" y="640" width="120" height="60" as="geometry" />
        </mxCell>
        <mxCell id="xfUzociu4RJ8IxwvNbOc-6" value="We&#39;ve already voted in this view" style="whiteSpace=wrap;html=1;fillColor=#f8cecc;strokeColor=#b85450;rounded=1;arcSize=50;verticalLabelPosition=bottom;verticalAlign=top;shape=mxgraph.flowchart.or;strokeWidth=6;" parent="1" vertex="1">
          <mxGeometry x="280" y="640" width="60" height="60" as="geometry" />
        </mxCell>
        <mxCell id="xfUzociu4RJ8IxwvNbOc-7" style="edgeStyle=orthogonalEdgeStyle;rounded=0;orthogonalLoop=1;jettySize=auto;html=1;entryX=0;entryY=0.5;entryDx=0;entryDy=0;entryPerimeter=0;" parent="1" source="xfUzociu4RJ8IxwvNbOc-2" target="xfUzociu4RJ8IxwvNbOc-6" edge="1">
          <mxGeometry relative="1" as="geometry" />
        </mxCell>
        <mxCell id="xfUzociu4RJ8IxwvNbOc-8" value="No" style="edgeLabel;html=1;align=center;verticalAlign=middle;resizable=0;points=[];" parent="xfUzociu4RJ8IxwvNbOc-7" vertex="1" connectable="0">
          <mxGeometry y="1" relative="1" as="geometry">
            <mxPoint as="offset" />
          </mxGeometry>
        </mxCell>
        <mxCell id="KNZv4TGAp9zdyb55509J-54" style="edgeStyle=orthogonalEdgeStyle;rounded=0;orthogonalLoop=1;jettySize=auto;html=1;entryX=0.5;entryY=0;entryDx=0;entryDy=0;" parent="1" source="xfUzociu4RJ8IxwvNbOc-9" target="KNZv4TGAp9zdyb55509J-34" edge="1">
          <mxGeometry relative="1" as="geometry" />
        </mxCell>
        <mxCell id="KNZv4TGAp9zdyb55509J-55" value="Yes" style="edgeLabel;html=1;align=center;verticalAlign=middle;resizable=0;points=[];" parent="KNZv4TGAp9zdyb55509J-54" vertex="1" connectable="0">
          <mxGeometry x="0.0842" relative="1" as="geometry">
            <mxPoint as="offset" />
          </mxGeometry>
        </mxCell>
        <mxCell id="xfUzociu4RJ8IxwvNbOc-9" value="Is the message correctly signed by the leader of the proposal&#39;s view?" style="whiteSpace=wrap;html=1;rounded=0;fillColor=#dae8fc;strokeColor=#6c8ebf;strokeWidth=2;" parent="1" vertex="1">
          <mxGeometry x="80" y="780" width="120" height="60" as="geometry" />
        </mxCell>
        <mxCell id="KNZv4TGAp9zdyb55509J-1" value="Invalid signature" style="whiteSpace=wrap;html=1;fillColor=#f8cecc;strokeColor=#b85450;rounded=1;arcSize=50;verticalLabelPosition=bottom;verticalAlign=top;shape=mxgraph.flowchart.or;strokeWidth=6;" parent="1" vertex="1">
          <mxGeometry x="280" y="780" width="60" height="60" as="geometry" />
        </mxCell>
        <mxCell id="KNZv4TGAp9zdyb55509J-3" style="edgeStyle=orthogonalEdgeStyle;rounded=0;orthogonalLoop=1;jettySize=auto;html=1;entryX=0;entryY=0.5;entryDx=0;entryDy=0;entryPerimeter=0;" parent="1" source="xfUzociu4RJ8IxwvNbOc-9" target="KNZv4TGAp9zdyb55509J-1" edge="1">
          <mxGeometry relative="1" as="geometry" />
        </mxCell>
        <mxCell id="KNZv4TGAp9zdyb55509J-4" value="No" style="edgeLabel;html=1;align=center;verticalAlign=middle;resizable=0;points=[];" parent="KNZv4TGAp9zdyb55509J-3" vertex="1" connectable="0">
          <mxGeometry relative="1" as="geometry">
            <mxPoint as="offset" />
          </mxGeometry>
        </mxCell>
        <mxCell id="KNZv4TGAp9zdyb55509J-30" style="edgeStyle=orthogonalEdgeStyle;rounded=0;orthogonalLoop=1;jettySize=auto;html=1;" parent="1" source="KNZv4TGAp9zdyb55509J-34" target="KNZv4TGAp9zdyb55509J-36" edge="1">
          <mxGeometry relative="1" as="geometry" />
        </mxCell>
        <mxCell id="KNZv4TGAp9zdyb55509J-31" value="No" style="edgeLabel;html=1;align=center;verticalAlign=middle;resizable=0;points=[];" parent="KNZv4TGAp9zdyb55509J-30" vertex="1" connectable="0">
          <mxGeometry x="-0.0833" relative="1" as="geometry">
            <mxPoint as="offset" />
          </mxGeometry>
        </mxCell>
        <mxCell id="KNZv4TGAp9zdyb55509J-32" value="" style="edgeStyle=orthogonalEdgeStyle;rounded=0;orthogonalLoop=1;jettySize=auto;html=1;" parent="1" source="KNZv4TGAp9zdyb55509J-34" target="KNZv4TGAp9zdyb55509J-41" edge="1">
          <mxGeometry relative="1" as="geometry" />
        </mxCell>
        <mxCell id="KNZv4TGAp9zdyb55509J-33" value="Yes" style="edgeLabel;html=1;align=center;verticalAlign=middle;resizable=0;points=[];" parent="KNZv4TGAp9zdyb55509J-32" vertex="1" connectable="0">
          <mxGeometry x="-0.025" y="-1" relative="1" as="geometry">
            <mxPoint x="1" y="-67" as="offset" />
          </mxGeometry>
        </mxCell>
        <mxCell id="KNZv4TGAp9zdyb55509J-34" value="Is proposal QC view equal to the immediately preceding view (proposal&#39;s view - 1)?" style="whiteSpace=wrap;html=1;rounded=0;fillColor=#dae8fc;strokeColor=#6c8ebf;strokeWidth=2;" parent="1" vertex="1">
          <mxGeometry x="80.5" y="1035" width="120" height="70" as="geometry" />
        </mxCell>
        <mxCell id="KNZv4TGAp9zdyb55509J-58" style="edgeStyle=orthogonalEdgeStyle;rounded=0;orthogonalLoop=1;jettySize=auto;html=1;entryX=0.5;entryY=0;entryDx=0;entryDy=0;" parent="1" source="KNZv4TGAp9zdyb55509J-36" target="KNZv4TGAp9zdyb55509J-47" edge="1">
          <mxGeometry relative="1" as="geometry" />
        </mxCell>
        <mxCell id="KNZv4TGAp9zdyb55509J-59" value="Yes" style="edgeLabel;html=1;align=center;verticalAlign=middle;resizable=0;points=[];" parent="KNZv4TGAp9zdyb55509J-58" vertex="1" connectable="0">
          <mxGeometry x="-0.125" relative="1" as="geometry">
            <mxPoint as="offset" />
          </mxGeometry>
        </mxCell>
        <mxCell id="bGltdMpPFPNPKB7S5yFq-5" value="" style="edgeStyle=orthogonalEdgeStyle;rounded=0;orthogonalLoop=1;jettySize=auto;html=1;" parent="1" source="KNZv4TGAp9zdyb55509J-36" target="bGltdMpPFPNPKB7S5yFq-4" edge="1">
          <mxGeometry relative="1" as="geometry" />
        </mxCell>
        <mxCell id="bGltdMpPFPNPKB7S5yFq-8" value="No" style="edgeLabel;html=1;align=center;verticalAlign=middle;resizable=0;points=[];" parent="bGltdMpPFPNPKB7S5yFq-5" vertex="1" connectable="0">
          <mxGeometry x="-0.024" y="-1" relative="1" as="geometry">
            <mxPoint as="offset" />
          </mxGeometry>
        </mxCell>
        <mxCell id="KNZv4TGAp9zdyb55509J-36" value="Does proposal have a TC?&amp;nbsp;" style="whiteSpace=wrap;html=1;rounded=0;fillColor=#dae8fc;strokeColor=#6c8ebf;strokeWidth=2;" parent="1" vertex="1">
          <mxGeometry x="430" y="1040" width="120" height="60" as="geometry" />
        </mxCell>
        <mxCell id="KNZv4TGAp9zdyb55509J-37" value="No view change evidence" style="whiteSpace=wrap;html=1;fillColor=#f8cecc;strokeColor=#b85450;rounded=1;arcSize=50;verticalLabelPosition=bottom;verticalAlign=top;shape=mxgraph.flowchart.or;strokeWidth=6;" parent="1" vertex="1">
          <mxGeometry x="980" y="1040" width="60" height="60" as="geometry" />
        </mxCell>
        <mxCell id="KNZv4TGAp9zdyb55509J-39" style="edgeStyle=orthogonalEdgeStyle;rounded=0;orthogonalLoop=1;jettySize=auto;html=1;entryX=0.5;entryY=0;entryDx=0;entryDy=0;" parent="1" source="KNZv4TGAp9zdyb55509J-41" target="KNZv4TGAp9zdyb55509J-44" edge="1">
          <mxGeometry relative="1" as="geometry" />
        </mxCell>
        <mxCell id="KNZv4TGAp9zdyb55509J-40" value="Yes" style="edgeLabel;html=1;align=center;verticalAlign=middle;resizable=0;points=[];" parent="KNZv4TGAp9zdyb55509J-39" vertex="1" connectable="0">
          <mxGeometry x="-0.075" y="-1" relative="1" as="geometry">
            <mxPoint as="offset" />
          </mxGeometry>
        </mxCell>
        <mxCell id="KNZv4TGAp9zdyb55509J-56" style="edgeStyle=orthogonalEdgeStyle;rounded=0;orthogonalLoop=1;jettySize=auto;html=1;" parent="1" source="KNZv4TGAp9zdyb55509J-41" target="KNZv4TGAp9zdyb55509J-42" edge="1">
          <mxGeometry relative="1" as="geometry" />
        </mxCell>
        <mxCell id="KNZv4TGAp9zdyb55509J-57" value="No" style="edgeLabel;html=1;align=center;verticalAlign=middle;resizable=0;points=[];" parent="KNZv4TGAp9zdyb55509J-56" vertex="1" connectable="0">
          <mxGeometry x="0.0056" y="-2" relative="1" as="geometry">
            <mxPoint as="offset" />
          </mxGeometry>
        </mxCell>
        <mxCell id="KNZv4TGAp9zdyb55509J-41" value="Is proposal&#39;s QC valid?" style="whiteSpace=wrap;html=1;rounded=0;fillColor=#dae8fc;strokeColor=#6c8ebf;strokeWidth=2;" parent="1" vertex="1">
          <mxGeometry x="80.5" y="1560" width="120" height="60" as="geometry" />
        </mxCell>
        <mxCell id="KNZv4TGAp9zdyb55509J-42" value="Invalid QC" style="whiteSpace=wrap;html=1;fillColor=#f8cecc;strokeColor=#b85450;rounded=1;arcSize=50;verticalLabelPosition=bottom;verticalAlign=top;shape=mxgraph.flowchart.or;strokeWidth=6;" parent="1" vertex="1">
          <mxGeometry x="290" y="1560" width="60" height="60" as="geometry" />
        </mxCell>
        <mxCell id="KNZv4TGAp9zdyb55509J-62" style="edgeStyle=orthogonalEdgeStyle;rounded=0;orthogonalLoop=1;jettySize=auto;html=1;" parent="1" source="KNZv4TGAp9zdyb55509J-44" target="bGltdMpPFPNPKB7S5yFq-53" edge="1">
          <mxGeometry relative="1" as="geometry">
            <mxPoint x="140.5" y="1920" as="targetPoint" />
          </mxGeometry>
        </mxCell>
        <mxCell id="KNZv4TGAp9zdyb55509J-44" value="ViewChange(proposal.view)" style="whiteSpace=wrap;html=1;fillColor=#d5e8d4;strokeColor=#82b366;rounded=1;arcSize=50;strokeWidth=2;" parent="1" vertex="1">
          <mxGeometry x="55.5" y="1700" width="170" height="60" as="geometry" />
        </mxCell>
        <mxCell id="bGltdMpPFPNPKB7S5yFq-7" value="" style="edgeStyle=orthogonalEdgeStyle;rounded=0;orthogonalLoop=1;jettySize=auto;html=1;" parent="1" source="KNZv4TGAp9zdyb55509J-47" target="bGltdMpPFPNPKB7S5yFq-6" edge="1">
          <mxGeometry relative="1" as="geometry" />
        </mxCell>
        <mxCell id="bGltdMpPFPNPKB7S5yFq-23" value="Yes" style="edgeLabel;html=1;align=center;verticalAlign=middle;resizable=0;points=[];" parent="bGltdMpPFPNPKB7S5yFq-7" vertex="1" connectable="0">
          <mxGeometry x="-0.15" y="2" relative="1" as="geometry">
            <mxPoint as="offset" />
          </mxGeometry>
        </mxCell>
        <mxCell id="KNZv4TGAp9zdyb55509J-47" value="Is proposal TC&#39;s view equal to the immediately preceding view (proposal&#39;s view - 1)?" style="whiteSpace=wrap;html=1;rounded=0;fillColor=#dae8fc;strokeColor=#6c8ebf;strokeWidth=2;" parent="1" vertex="1">
          <mxGeometry x="430" y="1175" width="120" height="70" as="geometry" />
        </mxCell>
        <mxCell id="KNZv4TGAp9zdyb55509J-48" value="TC is for incorrect view" style="whiteSpace=wrap;html=1;fillColor=#f8cecc;strokeColor=#b85450;rounded=1;arcSize=50;verticalLabelPosition=bottom;verticalAlign=top;shape=mxgraph.flowchart.or;strokeWidth=6;" parent="1" vertex="1">
          <mxGeometry x="630" y="1180" width="60" height="60" as="geometry" />
        </mxCell>
        <mxCell id="bGltdMpPFPNPKB7S5yFq-10" value="" style="edgeStyle=orthogonalEdgeStyle;rounded=0;orthogonalLoop=1;jettySize=auto;html=1;" parent="1" source="bGltdMpPFPNPKB7S5yFq-4" target="bGltdMpPFPNPKB7S5yFq-9" edge="1">
          <mxGeometry relative="1" as="geometry" />
        </mxCell>
        <mxCell id="bGltdMpPFPNPKB7S5yFq-26" value="Yes" style="edgeLabel;html=1;align=center;verticalAlign=middle;resizable=0;points=[];" parent="bGltdMpPFPNPKB7S5yFq-10" vertex="1" connectable="0">
          <mxGeometry x="-0.15" relative="1" as="geometry">
            <mxPoint as="offset" />
          </mxGeometry>
        </mxCell>
        <mxCell id="bGltdMpPFPNPKB7S5yFq-4" value="Does proposal have a view sync commit certificate?&amp;nbsp;" style="whiteSpace=wrap;html=1;rounded=0;fillColor=#dae8fc;strokeColor=#6c8ebf;strokeWidth=2;" parent="1" vertex="1">
          <mxGeometry x="779.5" y="1040" width="120" height="60" as="geometry" />
        </mxCell>
        <mxCell id="bGltdMpPFPNPKB7S5yFq-14" style="edgeStyle=orthogonalEdgeStyle;rounded=0;orthogonalLoop=1;jettySize=auto;html=1;" parent="1" source="bGltdMpPFPNPKB7S5yFq-6" target="KNZv4TGAp9zdyb55509J-41" edge="1">
          <mxGeometry relative="1" as="geometry">
            <mxPoint x="140" y="1350" as="targetPoint" />
          </mxGeometry>
        </mxCell>
        <mxCell id="bGltdMpPFPNPKB7S5yFq-24" value="Yes" style="edgeLabel;html=1;align=center;verticalAlign=middle;resizable=0;points=[];" parent="bGltdMpPFPNPKB7S5yFq-14" vertex="1" connectable="0">
          <mxGeometry x="-0.685" relative="1" as="geometry">
            <mxPoint x="-61" as="offset" />
          </mxGeometry>
        </mxCell>
        <mxCell id="bGltdMpPFPNPKB7S5yFq-19" style="edgeStyle=orthogonalEdgeStyle;rounded=0;orthogonalLoop=1;jettySize=auto;html=1;" parent="1" source="bGltdMpPFPNPKB7S5yFq-6" target="bGltdMpPFPNPKB7S5yFq-18" edge="1">
          <mxGeometry relative="1" as="geometry" />
        </mxCell>
        <mxCell id="bGltdMpPFPNPKB7S5yFq-22" value="No" style="edgeLabel;html=1;align=center;verticalAlign=middle;resizable=0;points=[];" parent="bGltdMpPFPNPKB7S5yFq-19" vertex="1" connectable="0">
          <mxGeometry x="-0.1" relative="1" as="geometry">
            <mxPoint as="offset" />
          </mxGeometry>
        </mxCell>
        <mxCell id="bGltdMpPFPNPKB7S5yFq-6" value="Is proposal&#39;s TC valid?" style="whiteSpace=wrap;html=1;rounded=0;fillColor=#dae8fc;strokeColor=#6c8ebf;strokeWidth=2;" parent="1" vertex="1">
          <mxGeometry x="430" y="1320" width="120" height="60" as="geometry" />
        </mxCell>
        <mxCell id="bGltdMpPFPNPKB7S5yFq-12" value="" style="edgeStyle=orthogonalEdgeStyle;rounded=0;orthogonalLoop=1;jettySize=auto;html=1;" parent="1" source="bGltdMpPFPNPKB7S5yFq-9" target="bGltdMpPFPNPKB7S5yFq-11" edge="1">
          <mxGeometry relative="1" as="geometry" />
        </mxCell>
        <mxCell id="bGltdMpPFPNPKB7S5yFq-27" value="Yes" style="edgeLabel;html=1;align=center;verticalAlign=middle;resizable=0;points=[];" parent="bGltdMpPFPNPKB7S5yFq-12" vertex="1" connectable="0">
          <mxGeometry x="-0.025" relative="1" as="geometry">
            <mxPoint as="offset" />
          </mxGeometry>
        </mxCell>
        <mxCell id="bGltdMpPFPNPKB7S5yFq-9" value="Is proposal view sync commit&#39;s certificate view equal to proposal&#39;s view?&amp;nbsp;" style="whiteSpace=wrap;html=1;rounded=0;fillColor=#dae8fc;strokeColor=#6c8ebf;strokeWidth=2;" parent="1" vertex="1">
          <mxGeometry x="779.5" y="1180" width="120" height="60" as="geometry" />
        </mxCell>
        <mxCell id="KeJ-MgEJR0mc3nozKlLl-2" style="edgeStyle=orthogonalEdgeStyle;rounded=0;orthogonalLoop=1;jettySize=auto;html=1;" parent="1" source="bGltdMpPFPNPKB7S5yFq-11" target="KeJ-MgEJR0mc3nozKlLl-1" edge="1">
          <mxGeometry relative="1" as="geometry" />
        </mxCell>
        <mxCell id="bGltdMpPFPNPKB7S5yFq-15" style="edgeStyle=orthogonalEdgeStyle;rounded=0;orthogonalLoop=1;jettySize=auto;html=1;entryX=0.5;entryY=0;entryDx=0;entryDy=0;" parent="1" source="bGltdMpPFPNPKB7S5yFq-11" target="KNZv4TGAp9zdyb55509J-41" edge="1">
          <mxGeometry relative="1" as="geometry">
            <Array as="points">
              <mxPoint x="840" y="1490" />
              <mxPoint x="140" y="1490" />
            </Array>
          </mxGeometry>
        </mxCell>
        <mxCell id="bGltdMpPFPNPKB7S5yFq-25" value="Yes" style="edgeLabel;html=1;align=center;verticalAlign=middle;resizable=0;points=[];" parent="bGltdMpPFPNPKB7S5yFq-15" vertex="1" connectable="0">
          <mxGeometry x="-0.941" y="1" relative="1" as="geometry">
            <mxPoint x="-1" y="24" as="offset" />
          </mxGeometry>
        </mxCell>
        <mxCell id="bGltdMpPFPNPKB7S5yFq-11" value="Is proposal&#39;s view sync commit cert valid?&amp;nbsp;" style="whiteSpace=wrap;html=1;rounded=0;fillColor=#dae8fc;strokeColor=#6c8ebf;strokeWidth=2;" parent="1" vertex="1">
          <mxGeometry x="779.5" y="1320" width="120" height="60" as="geometry" />
        </mxCell>
        <mxCell id="bGltdMpPFPNPKB7S5yFq-13" style="edgeStyle=orthogonalEdgeStyle;rounded=0;orthogonalLoop=1;jettySize=auto;html=1;entryX=0;entryY=0.5;entryDx=0;entryDy=0;entryPerimeter=0;" parent="1" source="bGltdMpPFPNPKB7S5yFq-4" target="KNZv4TGAp9zdyb55509J-37" edge="1">
          <mxGeometry relative="1" as="geometry" />
        </mxCell>
        <mxCell id="bGltdMpPFPNPKB7S5yFq-16" value="No" style="edgeLabel;html=1;align=center;verticalAlign=middle;resizable=0;points=[];" parent="bGltdMpPFPNPKB7S5yFq-13" vertex="1" connectable="0">
          <mxGeometry x="-0.0932" relative="1" as="geometry">
            <mxPoint x="1" as="offset" />
          </mxGeometry>
        </mxCell>
        <mxCell id="bGltdMpPFPNPKB7S5yFq-17" style="edgeStyle=orthogonalEdgeStyle;rounded=0;orthogonalLoop=1;jettySize=auto;html=1;entryX=0;entryY=0.5;entryDx=0;entryDy=0;entryPerimeter=0;" parent="1" source="KNZv4TGAp9zdyb55509J-47" target="KNZv4TGAp9zdyb55509J-48" edge="1">
          <mxGeometry relative="1" as="geometry" />
        </mxCell>
        <mxCell id="bGltdMpPFPNPKB7S5yFq-21" value="No" style="edgeLabel;html=1;align=center;verticalAlign=middle;resizable=0;points=[];" parent="bGltdMpPFPNPKB7S5yFq-17" vertex="1" connectable="0">
          <mxGeometry x="-0.1" y="-2" relative="1" as="geometry">
            <mxPoint as="offset" />
          </mxGeometry>
        </mxCell>
        <mxCell id="bGltdMpPFPNPKB7S5yFq-18" value="Invalid TC" style="whiteSpace=wrap;html=1;fillColor=#f8cecc;strokeColor=#b85450;rounded=1;arcSize=50;verticalLabelPosition=bottom;verticalAlign=top;shape=mxgraph.flowchart.or;strokeWidth=6;" parent="1" vertex="1">
          <mxGeometry x="630" y="1320" width="60" height="60" as="geometry" />
        </mxCell>
        <mxCell id="bGltdMpPFPNPKB7S5yFq-20" value="View sync cert is for incorrect view" style="whiteSpace=wrap;html=1;fillColor=#f8cecc;strokeColor=#b85450;rounded=1;arcSize=50;verticalLabelPosition=bottom;verticalAlign=top;shape=mxgraph.flowchart.or;strokeWidth=6;" parent="1" vertex="1">
          <mxGeometry x="980" y="1180" width="60" height="60" as="geometry" />
        </mxCell>
        <mxCell id="bGltdMpPFPNPKB7S5yFq-28" style="edgeStyle=orthogonalEdgeStyle;rounded=0;orthogonalLoop=1;jettySize=auto;html=1;entryX=0;entryY=0.5;entryDx=0;entryDy=0;entryPerimeter=0;" parent="1" source="bGltdMpPFPNPKB7S5yFq-9" target="bGltdMpPFPNPKB7S5yFq-20" edge="1">
          <mxGeometry relative="1" as="geometry" />
        </mxCell>
        <mxCell id="bGltdMpPFPNPKB7S5yFq-31" value="No" style="edgeLabel;html=1;align=center;verticalAlign=middle;resizable=0;points=[];" parent="bGltdMpPFPNPKB7S5yFq-28" vertex="1" connectable="0">
          <mxGeometry x="-0.1429" relative="1" as="geometry">
            <mxPoint x="1" as="offset" />
          </mxGeometry>
        </mxCell>
        <mxCell id="bGltdMpPFPNPKB7S5yFq-29" value="View sync cert is invalid" style="whiteSpace=wrap;html=1;fillColor=#f8cecc;strokeColor=#b85450;rounded=1;arcSize=50;verticalLabelPosition=bottom;verticalAlign=top;shape=mxgraph.flowchart.or;strokeWidth=6;" parent="1" vertex="1">
          <mxGeometry x="980" y="1320" width="60" height="60" as="geometry" />
        </mxCell>
        <mxCell id="bGltdMpPFPNPKB7S5yFq-30" style="edgeStyle=orthogonalEdgeStyle;rounded=0;orthogonalLoop=1;jettySize=auto;html=1;entryX=0;entryY=0.5;entryDx=0;entryDy=0;entryPerimeter=0;" parent="1" source="bGltdMpPFPNPKB7S5yFq-11" target="bGltdMpPFPNPKB7S5yFq-29" edge="1">
          <mxGeometry relative="1" as="geometry" />
        </mxCell>
        <mxCell id="bGltdMpPFPNPKB7S5yFq-32" value="No" style="edgeLabel;html=1;align=center;verticalAlign=middle;resizable=0;points=[];" parent="bGltdMpPFPNPKB7S5yFq-30" vertex="1" connectable="0">
          <mxGeometry x="-0.1429" y="2" relative="1" as="geometry">
            <mxPoint x="1" as="offset" />
          </mxGeometry>
        </mxCell>
        <mxCell id="bGltdMpPFPNPKB7S5yFq-57" style="edgeStyle=orthogonalEdgeStyle;rounded=0;orthogonalLoop=1;jettySize=auto;html=1;entryX=0;entryY=0.5;entryDx=0;entryDy=0;entryPerimeter=0;" parent="1" source="bGltdMpPFPNPKB7S5yFq-34" target="bGltdMpPFPNPKB7S5yFq-36" edge="1">
          <mxGeometry relative="1" as="geometry">
            <mxPoint x="459.5" y="2230" as="targetPoint" />
          </mxGeometry>
        </mxCell>
        <mxCell id="bGltdMpPFPNPKB7S5yFq-34" value="Fetch missing leaves back to our locked block" style="whiteSpace=wrap;html=1;rounded=0;fillColor=#e1d5e7;strokeColor=#9673a6;strokeWidth=2;shape=process;backgroundOutline=1;" parent="1" vertex="1">
          <mxGeometry x="259.5" y="2200" width="120" height="60" as="geometry" />
        </mxCell>
        <mxCell id="bGltdMpPFPNPKB7S5yFq-35" value="" style="html=1;verticalLabelPosition=bottom;align=center;labelBackgroundColor=#ffffff;verticalAlign=top;strokeWidth=2;strokeColor=#0080F0;shadow=0;dashed=0;shape=mxgraph.ios7.icons.add;" parent="1" vertex="1">
          <mxGeometry x="247.25" y="2190" width="30" height="30" as="geometry" />
        </mxCell>
        <mxCell id="bGltdMpPFPNPKB7S5yFq-36" value="Do not have enough information to validate proposal" style="whiteSpace=wrap;html=1;fillColor=#f8cecc;strokeColor=#b85450;rounded=1;arcSize=50;verticalLabelPosition=bottom;verticalAlign=top;shape=mxgraph.flowchart.or;strokeWidth=6;" parent="1" vertex="1">
          <mxGeometry x="474.5" y="2200" width="60" height="60" as="geometry" />
        </mxCell>
        <mxCell id="bGltdMpPFPNPKB7S5yFq-55" style="edgeStyle=orthogonalEdgeStyle;rounded=0;orthogonalLoop=1;jettySize=auto;html=1;entryX=0;entryY=0.5;entryDx=0;entryDy=0;" parent="1" source="bGltdMpPFPNPKB7S5yFq-40" target="bGltdMpPFPNPKB7S5yFq-34" edge="1">
          <mxGeometry relative="1" as="geometry" />
        </mxCell>
        <mxCell id="bGltdMpPFPNPKB7S5yFq-65" value="No" style="edgeLabel;html=1;align=center;verticalAlign=middle;resizable=0;points=[];" parent="bGltdMpPFPNPKB7S5yFq-55" vertex="1" connectable="0">
          <mxGeometry x="-0.1429" y="2" relative="1" as="geometry">
            <mxPoint x="1" as="offset" />
          </mxGeometry>
        </mxCell>
        <mxCell id="bGltdMpPFPNPKB7S5yFq-89" style="edgeStyle=orthogonalEdgeStyle;rounded=0;orthogonalLoop=1;jettySize=auto;html=1;" parent="1" source="bGltdMpPFPNPKB7S5yFq-40" target="bGltdMpPFPNPKB7S5yFq-87" edge="1">
          <mxGeometry relative="1" as="geometry" />
        </mxCell>
        <mxCell id="bGltdMpPFPNPKB7S5yFq-91" value="Yes" style="edgeLabel;html=1;align=center;verticalAlign=middle;resizable=0;points=[];" parent="bGltdMpPFPNPKB7S5yFq-89" vertex="1" connectable="0">
          <mxGeometry x="-0.1056" relative="1" as="geometry">
            <mxPoint as="offset" />
          </mxGeometry>
        </mxCell>
        <mxCell id="bGltdMpPFPNPKB7S5yFq-40" value="Do we have the leaf associated with the proposal&#39;s QC?" style="whiteSpace=wrap;html=1;rounded=0;fillColor=#dae8fc;strokeColor=#6c8ebf;strokeWidth=2;" parent="1" vertex="1">
          <mxGeometry x="80" y="2200" width="120" height="60" as="geometry" />
        </mxCell>
        <mxCell id="bGltdMpPFPNPKB7S5yFq-42" value="Proposal&#39;s QC is too old" style="whiteSpace=wrap;html=1;fillColor=#f8cecc;strokeColor=#b85450;rounded=1;arcSize=50;verticalLabelPosition=bottom;verticalAlign=top;shape=mxgraph.flowchart.or;strokeWidth=6;" parent="1" vertex="1">
          <mxGeometry x="290" y="1912" width="60" height="60" as="geometry" />
        </mxCell>
        <mxCell id="bGltdMpPFPNPKB7S5yFq-60" style="edgeStyle=orthogonalEdgeStyle;rounded=0;orthogonalLoop=1;jettySize=auto;html=1;" parent="1" source="bGltdMpPFPNPKB7S5yFq-46" target="bGltdMpPFPNPKB7S5yFq-49" edge="1">
          <mxGeometry relative="1" as="geometry">
            <mxPoint x="290.5" y="2510" as="targetPoint" />
          </mxGeometry>
        </mxCell>
        <mxCell id="bGltdMpPFPNPKB7S5yFq-64" value="No" style="edgeLabel;html=1;align=center;verticalAlign=middle;resizable=0;points=[];" parent="bGltdMpPFPNPKB7S5yFq-60" vertex="1" connectable="0">
          <mxGeometry x="-0.0738" relative="1" as="geometry">
            <mxPoint as="offset" />
          </mxGeometry>
        </mxCell>
        <mxCell id="bGltdMpPFPNPKB7S5yFq-72" value="" style="edgeStyle=orthogonalEdgeStyle;rounded=0;orthogonalLoop=1;jettySize=auto;html=1;" parent="1" source="bGltdMpPFPNPKB7S5yFq-46" target="bGltdMpPFPNPKB7S5yFq-71" edge="1">
          <mxGeometry relative="1" as="geometry" />
        </mxCell>
        <mxCell id="bGltdMpPFPNPKB7S5yFq-84" value="Yes" style="edgeLabel;html=1;align=center;verticalAlign=middle;resizable=0;points=[];" parent="bGltdMpPFPNPKB7S5yFq-72" vertex="1" connectable="0">
          <mxGeometry x="-0.05" relative="1" as="geometry">
            <mxPoint as="offset" />
          </mxGeometry>
        </mxCell>
        <mxCell id="bGltdMpPFPNPKB7S5yFq-46" value="Does the proposal extend the proposal&#39;s QC?&amp;nbsp;" style="whiteSpace=wrap;html=1;rounded=0;fillColor=#dae8fc;strokeColor=#6c8ebf;strokeWidth=2;" parent="1" vertex="1">
          <mxGeometry x="80.5" y="2480" width="120" height="60" as="geometry" />
        </mxCell>
        <mxCell id="bGltdMpPFPNPKB7S5yFq-49" value="Proposal does not extend its QC" style="whiteSpace=wrap;html=1;fillColor=#f8cecc;strokeColor=#b85450;rounded=1;arcSize=50;verticalLabelPosition=bottom;verticalAlign=top;shape=mxgraph.flowchart.or;strokeWidth=6;" parent="1" vertex="1">
          <mxGeometry x="290" y="2480" width="60" height="60" as="geometry" />
        </mxCell>
        <mxCell id="bGltdMpPFPNPKB7S5yFq-81" style="edgeStyle=orthogonalEdgeStyle;rounded=0;orthogonalLoop=1;jettySize=auto;html=1;" parent="1" source="bGltdMpPFPNPKB7S5yFq-53" target="bGltdMpPFPNPKB7S5yFq-80" edge="1">
          <mxGeometry relative="1" as="geometry" />
        </mxCell>
        <mxCell id="bGltdMpPFPNPKB7S5yFq-83" value="Yes" style="edgeLabel;html=1;align=center;verticalAlign=middle;resizable=0;points=[];" parent="bGltdMpPFPNPKB7S5yFq-81" vertex="1" connectable="0">
          <mxGeometry x="-0.2" y="-1" relative="1" as="geometry">
            <mxPoint as="offset" />
          </mxGeometry>
        </mxCell>
        <mxCell id="bGltdMpPFPNPKB7S5yFq-53" value="Is the proposal QC&#39;s view greater than or equal to our locked QC&#39;s view?" style="whiteSpace=wrap;html=1;rounded=0;fillColor=#dae8fc;strokeColor=#6c8ebf;strokeWidth=2;" parent="1" vertex="1">
          <mxGeometry x="80" y="1920" width="120" height="60" as="geometry" />
        </mxCell>
        <mxCell id="bGltdMpPFPNPKB7S5yFq-56" style="edgeStyle=orthogonalEdgeStyle;rounded=0;orthogonalLoop=1;jettySize=auto;html=1;entryX=0.033;entryY=0.633;entryDx=0;entryDy=0;entryPerimeter=0;" parent="1" source="bGltdMpPFPNPKB7S5yFq-53" target="bGltdMpPFPNPKB7S5yFq-42" edge="1">
          <mxGeometry relative="1" as="geometry" />
        </mxCell>
        <mxCell id="bGltdMpPFPNPKB7S5yFq-66" value="No" style="edgeLabel;html=1;align=center;verticalAlign=middle;resizable=0;points=[];" parent="bGltdMpPFPNPKB7S5yFq-56" vertex="1" connectable="0">
          <mxGeometry x="-0.1302" y="1" relative="1" as="geometry">
            <mxPoint as="offset" />
          </mxGeometry>
        </mxCell>
        <mxCell id="bGltdMpPFPNPKB7S5yFq-68" value="QuorumProposalValidated(proposal)" style="whiteSpace=wrap;html=1;fillColor=#d5e8d4;strokeColor=#82b366;rounded=1;arcSize=50;strokeWidth=2;" parent="1" vertex="1">
          <mxGeometry x="33.25" y="2930" width="214.5" height="60" as="geometry" />
        </mxCell>
        <mxCell id="bGltdMpPFPNPKB7S5yFq-74" style="edgeStyle=orthogonalEdgeStyle;rounded=0;orthogonalLoop=1;jettySize=auto;html=1;entryX=0;entryY=0.5;entryDx=0;entryDy=0;entryPerimeter=0;" parent="1" source="bGltdMpPFPNPKB7S5yFq-71" target="bGltdMpPFPNPKB7S5yFq-75" edge="1">
          <mxGeometry relative="1" as="geometry">
            <mxPoint x="275" y="2650" as="targetPoint" />
          </mxGeometry>
        </mxCell>
        <mxCell id="bGltdMpPFPNPKB7S5yFq-78" value="No" style="edgeLabel;html=1;align=center;verticalAlign=middle;resizable=0;points=[];" parent="bGltdMpPFPNPKB7S5yFq-74" vertex="1" connectable="0">
          <mxGeometry x="-0.1275" relative="1" as="geometry">
            <mxPoint as="offset" />
          </mxGeometry>
        </mxCell>
        <mxCell id="bGltdMpPFPNPKB7S5yFq-77" style="edgeStyle=orthogonalEdgeStyle;rounded=0;orthogonalLoop=1;jettySize=auto;html=1;entryX=0.5;entryY=0;entryDx=0;entryDy=0;" parent="1" source="bGltdMpPFPNPKB7S5yFq-71" target="cKMBn_hYGvpmcsBPfW0e-1" edge="1">
          <mxGeometry relative="1" as="geometry">
            <mxPoint x="141" y="2760" as="targetPoint" />
          </mxGeometry>
        </mxCell>
        <mxCell id="bGltdMpPFPNPKB7S5yFq-79" value="Yes" style="edgeLabel;html=1;align=center;verticalAlign=middle;resizable=0;points=[];" parent="bGltdMpPFPNPKB7S5yFq-77" vertex="1" connectable="0">
          <mxGeometry x="-0.0846" relative="1" as="geometry">
            <mxPoint as="offset" />
          </mxGeometry>
        </mxCell>
        <mxCell id="bGltdMpPFPNPKB7S5yFq-71" value="Does the proposal pass application checks?" style="whiteSpace=wrap;html=1;rounded=0;fillColor=#dae8fc;strokeColor=#6c8ebf;strokeWidth=2;" parent="1" vertex="1">
          <mxGeometry x="80.5" y="2620" width="120" height="60" as="geometry" />
        </mxCell>
        <mxCell id="bGltdMpPFPNPKB7S5yFq-75" value="Proposal fails application checks" style="whiteSpace=wrap;html=1;fillColor=#f8cecc;strokeColor=#b85450;rounded=1;arcSize=50;verticalLabelPosition=bottom;verticalAlign=top;shape=mxgraph.flowchart.or;strokeWidth=6;" parent="1" vertex="1">
          <mxGeometry x="290" y="2620" width="60" height="60" as="geometry" />
        </mxCell>
        <mxCell id="bGltdMpPFPNPKB7S5yFq-82" style="edgeStyle=orthogonalEdgeStyle;rounded=0;orthogonalLoop=1;jettySize=auto;html=1;" parent="1" source="bGltdMpPFPNPKB7S5yFq-80" target="bGltdMpPFPNPKB7S5yFq-40" edge="1">
          <mxGeometry relative="1" as="geometry" />
        </mxCell>
        <mxCell id="bGltdMpPFPNPKB7S5yFq-80" value="Update locked QC to proposal&#39;s QC" style="strokeWidth=2;html=1;shape=datastore;whiteSpace=wrap;labelPosition=center;verticalLabelPosition=middle;align=center;verticalAlign=top;fillColor=#ffe6cc;strokeColor=#d79b00;" parent="1" vertex="1">
          <mxGeometry x="95" y="2040" width="90" height="100" as="geometry" />
        </mxCell>
        <mxCell id="bGltdMpPFPNPKB7S5yFq-86" style="edgeStyle=orthogonalEdgeStyle;rounded=0;orthogonalLoop=1;jettySize=auto;html=1;" parent="1" source="bGltdMpPFPNPKB7S5yFq-68" target="0d2BQRaajyDdbKle9_W_-1" edge="1">
          <mxGeometry relative="1" as="geometry">
            <mxPoint x="140.5" y="2890" as="targetPoint" />
          </mxGeometry>
        </mxCell>
        <mxCell id="bGltdMpPFPNPKB7S5yFq-90" style="edgeStyle=orthogonalEdgeStyle;rounded=0;orthogonalLoop=1;jettySize=auto;html=1;" parent="1" source="bGltdMpPFPNPKB7S5yFq-87" target="bGltdMpPFPNPKB7S5yFq-46" edge="1">
          <mxGeometry relative="1" as="geometry" />
        </mxCell>
        <mxCell id="bGltdMpPFPNPKB7S5yFq-87" value="Determine committed blocks" style="whiteSpace=wrap;html=1;rounded=0;fillColor=#e1d5e7;strokeColor=#9673a6;strokeWidth=2;shape=process;backgroundOutline=1;" parent="1" vertex="1">
          <mxGeometry x="80.5" y="2340" width="120" height="60" as="geometry" />
        </mxCell>
        <mxCell id="bGltdMpPFPNPKB7S5yFq-88" value="" style="html=1;verticalLabelPosition=bottom;align=center;labelBackgroundColor=#ffffff;verticalAlign=top;strokeWidth=2;strokeColor=#0080F0;shadow=0;dashed=0;shape=mxgraph.ios7.icons.add;" parent="1" vertex="1">
          <mxGeometry x="68.25" y="2330" width="30" height="30" as="geometry" />
        </mxCell>
        <mxCell id="0d2BQRaajyDdbKle9_W_-1" value="Quorum proposal is valid" style="whiteSpace=wrap;html=1;fillColor=#d5e8d4;strokeColor=#82b366;rounded=1;arcSize=50;verticalLabelPosition=bottom;verticalAlign=top;shape=mxgraph.flowchart.or;strokeWidth=6;" parent="1" vertex="1">
          <mxGeometry x="110" y="3060" width="60" height="60" as="geometry" />
        </mxCell>
        <mxCell id="cKMBn_hYGvpmcsBPfW0e-2" style="edgeStyle=orthogonalEdgeStyle;rounded=0;orthogonalLoop=1;jettySize=auto;html=1;" parent="1" source="cKMBn_hYGvpmcsBPfW0e-1" target="bGltdMpPFPNPKB7S5yFq-68" edge="1">
          <mxGeometry relative="1" as="geometry" />
        </mxCell>
        <mxCell id="cKMBn_hYGvpmcsBPfW0e-1" value="Store proposal in state map" style="strokeWidth=2;html=1;shape=datastore;whiteSpace=wrap;labelPosition=center;verticalLabelPosition=middle;align=center;verticalAlign=top;fillColor=#ffe6cc;strokeColor=#d79b00;" parent="1" vertex="1">
          <mxGeometry x="95.5" y="2760" width="90" height="100" as="geometry" />
        </mxCell>
        <mxCell id="KeJ-MgEJR0mc3nozKlLl-1" value="ViewSyncCommitCertRecv(certificate)" style="whiteSpace=wrap;html=1;fillColor=#d5e8d4;strokeColor=#82b366;rounded=1;arcSize=50;strokeWidth=2;" parent="1" vertex="1">
          <mxGeometry x="734.5" y="1560" width="210" height="60" as="geometry" />
        </mxCell>
        <mxCell id="_MXV2LbIbXkBIwIddAVt-1" value="Annotations" parent="0" />
      </root>
    </mxGraphModel>
  </diagram>
  <diagram id="GRt77h7whMRAF62-NXpc" name="OptimisticDAProposalRecv">
    <mxGraphModel dx="1242" dy="818" grid="1" gridSize="10" guides="1" tooltips="1" connect="1" arrows="1" fold="1" page="1" pageScale="1" pageWidth="850" pageHeight="1100" math="0" shadow="0">
      <root>
        <mxCell id="0" />
        <mxCell id="1" parent="0" />
        <mxCell id="eLFiFEsM-5KMaCkp8ImR-1" value="&lt;b&gt;Basic Message Validation&lt;/b&gt;" style="rounded=0;whiteSpace=wrap;html=1;labelPosition=center;verticalLabelPosition=bottom;align=right;verticalAlign=top;dashed=1;strokeWidth=2;fillColor=#F5F5F5;" parent="1" vertex="1">
          <mxGeometry x="40" y="410" width="470" height="630" as="geometry" />
        </mxCell>
        <mxCell id="4XAwg8-d-pzoQ1rgx3KM-18" value="&lt;h1 style=&quot;line-height: 100%;&quot;&gt;OptimisticDAProposalRecv&lt;/h1&gt;&lt;p style=&quot;line-height: 100%;&quot;&gt;Validates and votes on a DA proposal&lt;/p&gt;" style="text;html=1;strokeColor=none;fillColor=none;spacing=5;spacingTop=-20;whiteSpace=wrap;overflow=hidden;rounded=0;" parent="1" vertex="1">
          <mxGeometry x="40" y="40" width="350" height="70" as="geometry" />
        </mxCell>
        <mxCell id="4XAwg8-d-pzoQ1rgx3KM-19" value="" style="endArrow=none;html=1;rounded=0;" parent="1" edge="1">
          <mxGeometry width="50" height="50" relative="1" as="geometry">
            <mxPoint x="40" y="120" as="sourcePoint" />
            <mxPoint x="800" y="120" as="targetPoint" />
          </mxGeometry>
        </mxCell>
        <mxCell id="4XAwg8-d-pzoQ1rgx3KM-20" value="&lt;b&gt;Global Storage Accessed&lt;/b&gt;" style="swimlane;fontStyle=0;childLayout=stackLayout;horizontal=1;startSize=30;horizontalStack=0;resizeParent=1;resizeParentMax=0;resizeLast=0;collapsible=1;marginBottom=0;whiteSpace=wrap;html=1;" parent="1" vertex="1">
          <mxGeometry x="40" y="140" width="160" height="120" as="geometry">
            <mxRectangle x="40" y="140" width="60" height="30" as="alternateBounds" />
          </mxGeometry>
        </mxCell>
        <mxCell id="4XAwg8-d-pzoQ1rgx3KM-21" value="latest_da_voted_view" style="text;strokeColor=none;fillColor=none;align=left;verticalAlign=middle;spacingLeft=4;spacingRight=4;overflow=hidden;points=[[0,0.5],[1,0.5]];portConstraint=eastwest;rotatable=0;whiteSpace=wrap;html=1;" parent="4XAwg8-d-pzoQ1rgx3KM-20" vertex="1">
          <mxGeometry y="30" width="160" height="30" as="geometry" />
        </mxCell>
        <mxCell id="4XAwg8-d-pzoQ1rgx3KM-22" value="latest_known_view" style="text;strokeColor=none;fillColor=none;align=left;verticalAlign=middle;spacingLeft=4;spacingRight=4;overflow=hidden;points=[[0,0.5],[1,0.5]];portConstraint=eastwest;rotatable=0;whiteSpace=wrap;html=1;" parent="4XAwg8-d-pzoQ1rgx3KM-20" vertex="1">
          <mxGeometry y="60" width="160" height="30" as="geometry" />
        </mxCell>
        <mxCell id="4XAwg8-d-pzoQ1rgx3KM-23" value="Item 3" style="text;strokeColor=none;fillColor=none;align=left;verticalAlign=middle;spacingLeft=4;spacingRight=4;overflow=hidden;points=[[0,0.5],[1,0.5]];portConstraint=eastwest;rotatable=0;whiteSpace=wrap;html=1;" parent="4XAwg8-d-pzoQ1rgx3KM-20" vertex="1">
          <mxGeometry y="90" width="160" height="30" as="geometry" />
        </mxCell>
        <mxCell id="4XAwg8-d-pzoQ1rgx3KM-24" value="&lt;b&gt;Possible Outputs&lt;/b&gt;" style="swimlane;fontStyle=0;childLayout=stackLayout;horizontal=1;startSize=30;horizontalStack=0;resizeParent=1;resizeParentMax=0;resizeLast=0;collapsible=1;marginBottom=0;whiteSpace=wrap;html=1;" parent="1" vertex="1">
          <mxGeometry x="240" y="140" width="160" height="120" as="geometry" />
        </mxCell>
        <mxCell id="4XAwg8-d-pzoQ1rgx3KM-25" value="Item 1" style="text;strokeColor=none;fillColor=none;align=left;verticalAlign=middle;spacingLeft=4;spacingRight=4;overflow=hidden;points=[[0,0.5],[1,0.5]];portConstraint=eastwest;rotatable=0;whiteSpace=wrap;html=1;" parent="4XAwg8-d-pzoQ1rgx3KM-24" vertex="1">
          <mxGeometry y="30" width="160" height="30" as="geometry" />
        </mxCell>
        <mxCell id="4XAwg8-d-pzoQ1rgx3KM-26" value="Item 2" style="text;strokeColor=none;fillColor=none;align=left;verticalAlign=middle;spacingLeft=4;spacingRight=4;overflow=hidden;points=[[0,0.5],[1,0.5]];portConstraint=eastwest;rotatable=0;whiteSpace=wrap;html=1;" parent="4XAwg8-d-pzoQ1rgx3KM-24" vertex="1">
          <mxGeometry y="60" width="160" height="30" as="geometry" />
        </mxCell>
        <mxCell id="4XAwg8-d-pzoQ1rgx3KM-27" value="Item 3" style="text;strokeColor=none;fillColor=none;align=left;verticalAlign=middle;spacingLeft=4;spacingRight=4;overflow=hidden;points=[[0,0.5],[1,0.5]];portConstraint=eastwest;rotatable=0;whiteSpace=wrap;html=1;" parent="4XAwg8-d-pzoQ1rgx3KM-24" vertex="1">
          <mxGeometry y="90" width="160" height="30" as="geometry" />
        </mxCell>
        <mxCell id="4XAwg8-d-pzoQ1rgx3KM-28" value="&lt;b&gt;Possible Spawning Tasks&lt;/b&gt;" style="swimlane;fontStyle=0;childLayout=stackLayout;horizontal=1;startSize=30;horizontalStack=0;resizeParent=1;resizeParentMax=0;resizeLast=0;collapsible=1;marginBottom=0;whiteSpace=wrap;html=1;" parent="1" vertex="1">
          <mxGeometry x="440" y="140" width="160" height="120" as="geometry" />
        </mxCell>
        <mxCell id="4XAwg8-d-pzoQ1rgx3KM-29" value="Item 1" style="text;strokeColor=none;fillColor=none;align=left;verticalAlign=middle;spacingLeft=4;spacingRight=4;overflow=hidden;points=[[0,0.5],[1,0.5]];portConstraint=eastwest;rotatable=0;whiteSpace=wrap;html=1;" parent="4XAwg8-d-pzoQ1rgx3KM-28" vertex="1">
          <mxGeometry y="30" width="160" height="30" as="geometry" />
        </mxCell>
        <mxCell id="4XAwg8-d-pzoQ1rgx3KM-30" value="Item 2" style="text;strokeColor=none;fillColor=none;align=left;verticalAlign=middle;spacingLeft=4;spacingRight=4;overflow=hidden;points=[[0,0.5],[1,0.5]];portConstraint=eastwest;rotatable=0;whiteSpace=wrap;html=1;" parent="4XAwg8-d-pzoQ1rgx3KM-28" vertex="1">
          <mxGeometry y="60" width="160" height="30" as="geometry" />
        </mxCell>
        <mxCell id="4XAwg8-d-pzoQ1rgx3KM-31" value="Item 3" style="text;strokeColor=none;fillColor=none;align=left;verticalAlign=middle;spacingLeft=4;spacingRight=4;overflow=hidden;points=[[0,0.5],[1,0.5]];portConstraint=eastwest;rotatable=0;whiteSpace=wrap;html=1;" parent="4XAwg8-d-pzoQ1rgx3KM-28" vertex="1">
          <mxGeometry y="90" width="160" height="30" as="geometry" />
        </mxCell>
        <mxCell id="4XAwg8-d-pzoQ1rgx3KM-32" value="" style="endArrow=none;html=1;rounded=0;" parent="1" edge="1">
          <mxGeometry width="50" height="50" relative="1" as="geometry">
            <mxPoint x="40" y="280" as="sourcePoint" />
            <mxPoint x="800" y="280" as="targetPoint" />
          </mxGeometry>
        </mxCell>
        <mxCell id="4XAwg8-d-pzoQ1rgx3KM-33" style="edgeStyle=orthogonalEdgeStyle;rounded=0;orthogonalLoop=1;jettySize=auto;html=1;entryX=0.5;entryY=0;entryDx=0;entryDy=0;" parent="1" source="4XAwg8-d-pzoQ1rgx3KM-34" target="4XAwg8-d-pzoQ1rgx3KM-43" edge="1">
          <mxGeometry relative="1" as="geometry" />
        </mxCell>
        <mxCell id="4XAwg8-d-pzoQ1rgx3KM-34" value="OptimisticDAProposalRecv(proposal)" style="rounded=1;whiteSpace=wrap;html=1;fillColor=#fff2cc;strokeColor=#d6b656;arcSize=50;strokeWidth=2;" parent="1" vertex="1">
          <mxGeometry x="40" y="320" width="220" height="60" as="geometry" />
        </mxCell>
        <mxCell id="4XAwg8-d-pzoQ1rgx3KM-53" value="" style="edgeStyle=orthogonalEdgeStyle;rounded=0;orthogonalLoop=1;jettySize=auto;html=1;" parent="1" source="4XAwg8-d-pzoQ1rgx3KM-43" target="4XAwg8-d-pzoQ1rgx3KM-52" edge="1">
          <mxGeometry relative="1" as="geometry" />
        </mxCell>
        <mxCell id="vJKDEQ1gt5N6olOfmioH-3" value="Yes" style="edgeLabel;html=1;align=center;verticalAlign=middle;resizable=0;points=[];" parent="4XAwg8-d-pzoQ1rgx3KM-53" vertex="1" connectable="0">
          <mxGeometry x="-0.1" relative="1" as="geometry">
            <mxPoint as="offset" />
          </mxGeometry>
        </mxCell>
        <mxCell id="4XAwg8-d-pzoQ1rgx3KM-43" value="Are we on the DA committee?" style="whiteSpace=wrap;html=1;rounded=0;fillColor=#dae8fc;strokeColor=#6c8ebf;strokeWidth=2;" parent="1" vertex="1">
          <mxGeometry x="90" y="450" width="120" height="60" as="geometry" />
        </mxCell>
        <mxCell id="4XAwg8-d-pzoQ1rgx3KM-44" value="We are not on the DA committee" style="whiteSpace=wrap;html=1;fillColor=#f8cecc;strokeColor=#b85450;rounded=1;arcSize=50;verticalLabelPosition=bottom;verticalAlign=top;shape=mxgraph.flowchart.or;strokeWidth=6;" parent="1" vertex="1">
          <mxGeometry x="300" y="450" width="60" height="60" as="geometry" />
        </mxCell>
        <mxCell id="4XAwg8-d-pzoQ1rgx3KM-45" style="edgeStyle=orthogonalEdgeStyle;rounded=0;orthogonalLoop=1;jettySize=auto;html=1;entryX=0;entryY=0.5;entryDx=0;entryDy=0;entryPerimeter=0;" parent="1" source="4XAwg8-d-pzoQ1rgx3KM-43" target="4XAwg8-d-pzoQ1rgx3KM-44" edge="1">
          <mxGeometry relative="1" as="geometry" />
        </mxCell>
        <mxCell id="4XAwg8-d-pzoQ1rgx3KM-46" value="No" style="edgeLabel;html=1;align=center;verticalAlign=middle;resizable=0;points=[];" parent="4XAwg8-d-pzoQ1rgx3KM-45" vertex="1" connectable="0">
          <mxGeometry x="-0.0444" relative="1" as="geometry">
            <mxPoint as="offset" />
          </mxGeometry>
        </mxCell>
        <mxCell id="kk7_qMnYcO-ovZKg4tNN-11" style="edgeStyle=orthogonalEdgeStyle;rounded=0;orthogonalLoop=1;jettySize=auto;html=1;" parent="1" source="4XAwg8-d-pzoQ1rgx3KM-48" target="4XAwg8-d-pzoQ1rgx3KM-50" edge="1">
          <mxGeometry relative="1" as="geometry" />
        </mxCell>
        <mxCell id="4XAwg8-d-pzoQ1rgx3KM-48" value="Store DA proposal + VID commitmentin our state map" style="strokeWidth=2;html=1;shape=datastore;whiteSpace=wrap;labelPosition=center;verticalLabelPosition=middle;align=center;verticalAlign=top;fillColor=#ffe6cc;strokeColor=#d79b00;" parent="1" vertex="1">
          <mxGeometry x="105" y="1220" width="90" height="100" as="geometry" />
        </mxCell>
        <mxCell id="vJKDEQ1gt5N6olOfmioH-2" style="edgeStyle=orthogonalEdgeStyle;rounded=0;orthogonalLoop=1;jettySize=auto;html=1;" parent="1" source="4XAwg8-d-pzoQ1rgx3KM-50" target="vJKDEQ1gt5N6olOfmioH-1" edge="1">
          <mxGeometry relative="1" as="geometry" />
        </mxCell>
        <mxCell id="4XAwg8-d-pzoQ1rgx3KM-50" value="OptimisticDAVoteSend(vote)" style="whiteSpace=wrap;html=1;fillColor=#d5e8d4;strokeColor=#82b366;rounded=1;arcSize=50;strokeWidth=2;" parent="1" vertex="1">
          <mxGeometry x="65" y="1400" width="170" height="60" as="geometry" />
        </mxCell>
        <mxCell id="-U3a0DXAcLX_lljCQsJS-2" style="edgeStyle=orthogonalEdgeStyle;rounded=0;orthogonalLoop=1;jettySize=auto;html=1;" parent="1" source="4XAwg8-d-pzoQ1rgx3KM-52" target="-U3a0DXAcLX_lljCQsJS-1" edge="1">
          <mxGeometry relative="1" as="geometry" />
        </mxCell>
        <mxCell id="vJKDEQ1gt5N6olOfmioH-4" value="No" style="edgeLabel;html=1;align=center;verticalAlign=middle;resizable=0;points=[];" parent="-U3a0DXAcLX_lljCQsJS-2" vertex="1" connectable="0">
          <mxGeometry x="-0.0444" relative="1" as="geometry">
            <mxPoint as="offset" />
          </mxGeometry>
        </mxCell>
        <mxCell id="kk7_qMnYcO-ovZKg4tNN-5" value="" style="edgeStyle=orthogonalEdgeStyle;rounded=0;orthogonalLoop=1;jettySize=auto;html=1;" parent="1" source="4XAwg8-d-pzoQ1rgx3KM-52" target="kk7_qMnYcO-ovZKg4tNN-4" edge="1">
          <mxGeometry relative="1" as="geometry" />
        </mxCell>
        <mxCell id="vJKDEQ1gt5N6olOfmioH-5" value="Yes" style="edgeLabel;html=1;align=center;verticalAlign=middle;resizable=0;points=[];" parent="kk7_qMnYcO-ovZKg4tNN-5" vertex="1" connectable="0">
          <mxGeometry x="-0.025" relative="1" as="geometry">
            <mxPoint as="offset" />
          </mxGeometry>
        </mxCell>
        <mxCell id="4XAwg8-d-pzoQ1rgx3KM-52" value="Is proposal&#39;s view greater than or equal to our latest known view?" style="whiteSpace=wrap;html=1;rounded=0;fillColor=#dae8fc;strokeColor=#6c8ebf;strokeWidth=2;" parent="1" vertex="1">
          <mxGeometry x="90" y="590" width="120" height="60" as="geometry" />
        </mxCell>
        <mxCell id="-U3a0DXAcLX_lljCQsJS-1" value="DA proposal is too old" style="whiteSpace=wrap;html=1;fillColor=#f8cecc;strokeColor=#b85450;rounded=1;arcSize=50;verticalLabelPosition=bottom;verticalAlign=top;shape=mxgraph.flowchart.or;strokeWidth=6;" parent="1" vertex="1">
          <mxGeometry x="300" y="590" width="60" height="60" as="geometry" />
        </mxCell>
        <mxCell id="eLFiFEsM-5KMaCkp8ImR-3" value="" style="edgeStyle=orthogonalEdgeStyle;rounded=0;orthogonalLoop=1;jettySize=auto;html=1;" parent="1" source="kk7_qMnYcO-ovZKg4tNN-1" target="eLFiFEsM-5KMaCkp8ImR-2" edge="1">
          <mxGeometry relative="1" as="geometry" />
        </mxCell>
        <mxCell id="eLFiFEsM-5KMaCkp8ImR-6" value="Yes" style="edgeLabel;html=1;align=center;verticalAlign=middle;resizable=0;points=[];" parent="eLFiFEsM-5KMaCkp8ImR-3" vertex="1" connectable="0">
          <mxGeometry x="-0.1" relative="1" as="geometry">
            <mxPoint as="offset" />
          </mxGeometry>
        </mxCell>
        <mxCell id="kk7_qMnYcO-ovZKg4tNN-1" value="Is proposal properly signed by leader of proposal view?" style="whiteSpace=wrap;html=1;rounded=0;fillColor=#dae8fc;strokeColor=#6c8ebf;strokeWidth=2;" parent="1" vertex="1">
          <mxGeometry x="90" y="870" width="120" height="60" as="geometry" />
        </mxCell>
        <mxCell id="kk7_qMnYcO-ovZKg4tNN-3" value="DA proposal signature is invalid" style="whiteSpace=wrap;html=1;fillColor=#f8cecc;strokeColor=#b85450;rounded=1;arcSize=50;verticalLabelPosition=bottom;verticalAlign=top;shape=mxgraph.flowchart.or;strokeWidth=6;" parent="1" vertex="1">
          <mxGeometry x="300" y="870" width="60" height="60" as="geometry" />
        </mxCell>
        <mxCell id="kk7_qMnYcO-ovZKg4tNN-8" style="edgeStyle=orthogonalEdgeStyle;rounded=0;orthogonalLoop=1;jettySize=auto;html=1;" parent="1" source="kk7_qMnYcO-ovZKg4tNN-4" target="kk7_qMnYcO-ovZKg4tNN-1" edge="1">
          <mxGeometry relative="1" as="geometry" />
        </mxCell>
        <mxCell id="vJKDEQ1gt5N6olOfmioH-7" value="Yes" style="edgeLabel;html=1;align=center;verticalAlign=middle;resizable=0;points=[];" parent="kk7_qMnYcO-ovZKg4tNN-8" vertex="1" connectable="0">
          <mxGeometry x="-0.025" y="1" relative="1" as="geometry">
            <mxPoint as="offset" />
          </mxGeometry>
        </mxCell>
        <mxCell id="kk7_qMnYcO-ovZKg4tNN-4" value="Is proposal&#39;s view greater than our latest DA voted view?" style="whiteSpace=wrap;html=1;rounded=0;fillColor=#dae8fc;strokeColor=#6c8ebf;strokeWidth=2;" parent="1" vertex="1">
          <mxGeometry x="90" y="730" width="120" height="60" as="geometry" />
        </mxCell>
        <mxCell id="kk7_qMnYcO-ovZKg4tNN-6" value="We&#39;ve already voted in this view" style="whiteSpace=wrap;html=1;fillColor=#f8cecc;strokeColor=#b85450;rounded=1;arcSize=50;verticalLabelPosition=bottom;verticalAlign=top;shape=mxgraph.flowchart.or;strokeWidth=6;" parent="1" vertex="1">
          <mxGeometry x="300" y="730" width="60" height="60" as="geometry" />
        </mxCell>
        <mxCell id="kk7_qMnYcO-ovZKg4tNN-7" style="edgeStyle=orthogonalEdgeStyle;rounded=0;orthogonalLoop=1;jettySize=auto;html=1;entryX=0;entryY=0.5;entryDx=0;entryDy=0;entryPerimeter=0;" parent="1" source="kk7_qMnYcO-ovZKg4tNN-4" target="kk7_qMnYcO-ovZKg4tNN-6" edge="1">
          <mxGeometry relative="1" as="geometry" />
        </mxCell>
        <mxCell id="vJKDEQ1gt5N6olOfmioH-6" value="No" style="edgeLabel;html=1;align=center;verticalAlign=middle;resizable=0;points=[];" parent="kk7_qMnYcO-ovZKg4tNN-7" vertex="1" connectable="0">
          <mxGeometry x="-0.0667" y="-1" relative="1" as="geometry">
            <mxPoint as="offset" />
          </mxGeometry>
        </mxCell>
        <mxCell id="kk7_qMnYcO-ovZKg4tNN-9" style="edgeStyle=orthogonalEdgeStyle;rounded=0;orthogonalLoop=1;jettySize=auto;html=1;entryX=0;entryY=0.5;entryDx=0;entryDy=0;entryPerimeter=0;" parent="1" source="kk7_qMnYcO-ovZKg4tNN-1" target="kk7_qMnYcO-ovZKg4tNN-3" edge="1">
          <mxGeometry relative="1" as="geometry" />
        </mxCell>
        <mxCell id="vJKDEQ1gt5N6olOfmioH-8" value="No" style="edgeLabel;html=1;align=center;verticalAlign=middle;resizable=0;points=[];" parent="kk7_qMnYcO-ovZKg4tNN-9" vertex="1" connectable="0">
          <mxGeometry x="-0.0889" y="-1" relative="1" as="geometry">
            <mxPoint as="offset" />
          </mxGeometry>
        </mxCell>
        <mxCell id="vJKDEQ1gt5N6olOfmioH-1" value="DA proposal is valid" style="whiteSpace=wrap;html=1;fillColor=#d5e8d4;strokeColor=#82b366;rounded=1;arcSize=50;verticalLabelPosition=bottom;verticalAlign=top;shape=mxgraph.flowchart.or;strokeWidth=6;" parent="1" vertex="1">
          <mxGeometry x="120" y="1540" width="60" height="60" as="geometry" />
        </mxCell>
        <mxCell id="eLFiFEsM-5KMaCkp8ImR-2" value="Is proposal data valid?" style="whiteSpace=wrap;html=1;rounded=0;fillColor=#dae8fc;strokeColor=#6c8ebf;strokeWidth=2;" parent="1" vertex="1">
          <mxGeometry x="90" y="1080" width="120" height="60" as="geometry" />
        </mxCell>
        <mxCell id="eLFiFEsM-5KMaCkp8ImR-4" style="edgeStyle=orthogonalEdgeStyle;rounded=0;orthogonalLoop=1;jettySize=auto;html=1;" parent="1" source="eLFiFEsM-5KMaCkp8ImR-2" target="4XAwg8-d-pzoQ1rgx3KM-48" edge="1">
          <mxGeometry relative="1" as="geometry">
            <mxPoint x="150" y="1150" as="targetPoint" />
          </mxGeometry>
        </mxCell>
        <mxCell id="eLFiFEsM-5KMaCkp8ImR-5" value="Yes" style="edgeLabel;html=1;align=center;verticalAlign=middle;resizable=0;points=[];" parent="eLFiFEsM-5KMaCkp8ImR-4" vertex="1" connectable="0">
          <mxGeometry relative="1" as="geometry">
            <mxPoint as="offset" />
          </mxGeometry>
        </mxCell>
        <mxCell id="eLFiFEsM-5KMaCkp8ImR-7" value="DA proposal&#39;s data is invalid" style="whiteSpace=wrap;html=1;fillColor=#f8cecc;strokeColor=#b85450;rounded=1;arcSize=50;verticalLabelPosition=bottom;verticalAlign=top;shape=mxgraph.flowchart.or;strokeWidth=6;" parent="1" vertex="1">
          <mxGeometry x="300" y="1080" width="60" height="60" as="geometry" />
        </mxCell>
        <mxCell id="eLFiFEsM-5KMaCkp8ImR-8" style="edgeStyle=orthogonalEdgeStyle;rounded=0;orthogonalLoop=1;jettySize=auto;html=1;entryX=0;entryY=0.5;entryDx=0;entryDy=0;entryPerimeter=0;" parent="1" source="eLFiFEsM-5KMaCkp8ImR-2" target="eLFiFEsM-5KMaCkp8ImR-7" edge="1">
          <mxGeometry relative="1" as="geometry" />
        </mxCell>
        <mxCell id="eLFiFEsM-5KMaCkp8ImR-9" value="No" style="edgeLabel;html=1;align=center;verticalAlign=middle;resizable=0;points=[];" parent="eLFiFEsM-5KMaCkp8ImR-8" vertex="1" connectable="0">
          <mxGeometry x="-0.1333" relative="1" as="geometry">
            <mxPoint as="offset" />
          </mxGeometry>
        </mxCell>
      </root>
    </mxGraphModel>
  </diagram>
  <diagram id="FHaX-ywYdhln9MwMoQxS" name="OptimisticDACertificateRecv">
    <mxGraphModel dx="1242" dy="818" grid="1" gridSize="10" guides="1" tooltips="1" connect="1" arrows="1" fold="1" page="1" pageScale="1" pageWidth="850" pageHeight="1100" math="0" shadow="0">
      <root>
        <mxCell id="0" />
        <mxCell id="1" parent="0" />
        <mxCell id="yHelPnOU9mAiEzxVV33Z-1" value="&lt;b&gt;Basic Message Validation&lt;/b&gt;" style="rounded=0;whiteSpace=wrap;html=1;labelPosition=center;verticalLabelPosition=bottom;align=right;verticalAlign=top;dashed=1;strokeWidth=2;fillColor=#F5F5F5;" vertex="1" parent="1">
          <mxGeometry x="40" y="410" width="470" height="330" as="geometry" />
        </mxCell>
        <mxCell id="yHelPnOU9mAiEzxVV33Z-2" value="&lt;h1 style=&quot;line-height: 100%;&quot;&gt;OptimisticDACertificateRecv&lt;/h1&gt;&lt;p style=&quot;line-height: 100%;&quot;&gt;Validates and stores an optimistic DA certificate&lt;/p&gt;" style="text;html=1;strokeColor=none;fillColor=none;spacing=5;spacingTop=-20;whiteSpace=wrap;overflow=hidden;rounded=0;" vertex="1" parent="1">
          <mxGeometry x="40" y="40" width="350" height="70" as="geometry" />
        </mxCell>
        <mxCell id="yHelPnOU9mAiEzxVV33Z-3" value="" style="endArrow=none;html=1;rounded=0;" edge="1" parent="1">
          <mxGeometry width="50" height="50" relative="1" as="geometry">
            <mxPoint x="40" y="120" as="sourcePoint" />
            <mxPoint x="800" y="120" as="targetPoint" />
          </mxGeometry>
        </mxCell>
        <mxCell id="yHelPnOU9mAiEzxVV33Z-4" value="&lt;b&gt;Task Storage&lt;/b&gt;" style="swimlane;fontStyle=0;childLayout=stackLayout;horizontal=1;startSize=30;horizontalStack=0;resizeParent=1;resizeParentMax=0;resizeLast=0;collapsible=1;marginBottom=0;whiteSpace=wrap;html=1;" vertex="1" parent="1">
          <mxGeometry x="40" y="140" width="160" height="120" as="geometry">
            <mxRectangle x="40" y="140" width="60" height="30" as="alternateBounds" />
          </mxGeometry>
        </mxCell>
        <mxCell id="yHelPnOU9mAiEzxVV33Z-5" value="s" style="text;strokeColor=none;fillColor=none;align=left;verticalAlign=middle;spacingLeft=4;spacingRight=4;overflow=hidden;points=[[0,0.5],[1,0.5]];portConstraint=eastwest;rotatable=0;whiteSpace=wrap;html=1;" vertex="1" parent="yHelPnOU9mAiEzxVV33Z-4">
          <mxGeometry y="30" width="160" height="30" as="geometry" />
        </mxCell>
        <mxCell id="yHelPnOU9mAiEzxVV33Z-6" value="Item 2" style="text;strokeColor=none;fillColor=none;align=left;verticalAlign=middle;spacingLeft=4;spacingRight=4;overflow=hidden;points=[[0,0.5],[1,0.5]];portConstraint=eastwest;rotatable=0;whiteSpace=wrap;html=1;" vertex="1" parent="yHelPnOU9mAiEzxVV33Z-4">
          <mxGeometry y="60" width="160" height="30" as="geometry" />
        </mxCell>
        <mxCell id="yHelPnOU9mAiEzxVV33Z-7" value="Item 3" style="text;strokeColor=none;fillColor=none;align=left;verticalAlign=middle;spacingLeft=4;spacingRight=4;overflow=hidden;points=[[0,0.5],[1,0.5]];portConstraint=eastwest;rotatable=0;whiteSpace=wrap;html=1;" vertex="1" parent="yHelPnOU9mAiEzxVV33Z-4">
          <mxGeometry y="90" width="160" height="30" as="geometry" />
        </mxCell>
        <mxCell id="yHelPnOU9mAiEzxVV33Z-8" value="&lt;b&gt;Possible Outputs&lt;/b&gt;" style="swimlane;fontStyle=0;childLayout=stackLayout;horizontal=1;startSize=30;horizontalStack=0;resizeParent=1;resizeParentMax=0;resizeLast=0;collapsible=1;marginBottom=0;whiteSpace=wrap;html=1;" vertex="1" parent="1">
          <mxGeometry x="240" y="140" width="160" height="120" as="geometry" />
        </mxCell>
        <mxCell id="yHelPnOU9mAiEzxVV33Z-9" value="Item 1" style="text;strokeColor=none;fillColor=none;align=left;verticalAlign=middle;spacingLeft=4;spacingRight=4;overflow=hidden;points=[[0,0.5],[1,0.5]];portConstraint=eastwest;rotatable=0;whiteSpace=wrap;html=1;" vertex="1" parent="yHelPnOU9mAiEzxVV33Z-8">
          <mxGeometry y="30" width="160" height="30" as="geometry" />
        </mxCell>
        <mxCell id="yHelPnOU9mAiEzxVV33Z-10" value="Item 2" style="text;strokeColor=none;fillColor=none;align=left;verticalAlign=middle;spacingLeft=4;spacingRight=4;overflow=hidden;points=[[0,0.5],[1,0.5]];portConstraint=eastwest;rotatable=0;whiteSpace=wrap;html=1;" vertex="1" parent="yHelPnOU9mAiEzxVV33Z-8">
          <mxGeometry y="60" width="160" height="30" as="geometry" />
        </mxCell>
        <mxCell id="yHelPnOU9mAiEzxVV33Z-11" value="Item 3" style="text;strokeColor=none;fillColor=none;align=left;verticalAlign=middle;spacingLeft=4;spacingRight=4;overflow=hidden;points=[[0,0.5],[1,0.5]];portConstraint=eastwest;rotatable=0;whiteSpace=wrap;html=1;" vertex="1" parent="yHelPnOU9mAiEzxVV33Z-8">
          <mxGeometry y="90" width="160" height="30" as="geometry" />
        </mxCell>
        <mxCell id="yHelPnOU9mAiEzxVV33Z-12" value="&lt;b&gt;Possible Spawning Tasks&lt;/b&gt;" style="swimlane;fontStyle=0;childLayout=stackLayout;horizontal=1;startSize=30;horizontalStack=0;resizeParent=1;resizeParentMax=0;resizeLast=0;collapsible=1;marginBottom=0;whiteSpace=wrap;html=1;" vertex="1" parent="1">
          <mxGeometry x="440" y="140" width="160" height="120" as="geometry" />
        </mxCell>
        <mxCell id="yHelPnOU9mAiEzxVV33Z-13" value="Item 1" style="text;strokeColor=none;fillColor=none;align=left;verticalAlign=middle;spacingLeft=4;spacingRight=4;overflow=hidden;points=[[0,0.5],[1,0.5]];portConstraint=eastwest;rotatable=0;whiteSpace=wrap;html=1;" vertex="1" parent="yHelPnOU9mAiEzxVV33Z-12">
          <mxGeometry y="30" width="160" height="30" as="geometry" />
        </mxCell>
        <mxCell id="yHelPnOU9mAiEzxVV33Z-14" value="Item 2" style="text;strokeColor=none;fillColor=none;align=left;verticalAlign=middle;spacingLeft=4;spacingRight=4;overflow=hidden;points=[[0,0.5],[1,0.5]];portConstraint=eastwest;rotatable=0;whiteSpace=wrap;html=1;" vertex="1" parent="yHelPnOU9mAiEzxVV33Z-12">
          <mxGeometry y="60" width="160" height="30" as="geometry" />
        </mxCell>
        <mxCell id="yHelPnOU9mAiEzxVV33Z-15" value="Item 3" style="text;strokeColor=none;fillColor=none;align=left;verticalAlign=middle;spacingLeft=4;spacingRight=4;overflow=hidden;points=[[0,0.5],[1,0.5]];portConstraint=eastwest;rotatable=0;whiteSpace=wrap;html=1;" vertex="1" parent="yHelPnOU9mAiEzxVV33Z-12">
          <mxGeometry y="90" width="160" height="30" as="geometry" />
        </mxCell>
        <mxCell id="yHelPnOU9mAiEzxVV33Z-16" value="" style="endArrow=none;html=1;rounded=0;" edge="1" parent="1">
          <mxGeometry width="50" height="50" relative="1" as="geometry">
            <mxPoint x="40" y="280" as="sourcePoint" />
            <mxPoint x="800" y="280" as="targetPoint" />
          </mxGeometry>
        </mxCell>
        <mxCell id="yHelPnOU9mAiEzxVV33Z-17" style="edgeStyle=orthogonalEdgeStyle;rounded=0;orthogonalLoop=1;jettySize=auto;html=1;entryX=0.5;entryY=0;entryDx=0;entryDy=0;" edge="1" parent="1" source="yHelPnOU9mAiEzxVV33Z-18" target="yHelPnOU9mAiEzxVV33Z-21">
          <mxGeometry relative="1" as="geometry" />
        </mxCell>
        <mxCell id="yHelPnOU9mAiEzxVV33Z-18" value="OptimisticDACertificatelRecv(certificate)" style="rounded=1;whiteSpace=wrap;html=1;fillColor=#fff2cc;strokeColor=#d6b656;arcSize=50;strokeWidth=2;" vertex="1" parent="1">
          <mxGeometry x="40" y="320" width="220" height="60" as="geometry" />
        </mxCell>
        <mxCell id="yHelPnOU9mAiEzxVV33Z-19" value="" style="edgeStyle=orthogonalEdgeStyle;rounded=0;orthogonalLoop=1;jettySize=auto;html=1;" edge="1" parent="1" source="yHelPnOU9mAiEzxVV33Z-21" target="yHelPnOU9mAiEzxVV33Z-33">
          <mxGeometry relative="1" as="geometry" />
        </mxCell>
        <mxCell id="yHelPnOU9mAiEzxVV33Z-20" value="Yes" style="edgeLabel;html=1;align=center;verticalAlign=middle;resizable=0;points=[];" vertex="1" connectable="0" parent="yHelPnOU9mAiEzxVV33Z-19">
          <mxGeometry x="-0.1" relative="1" as="geometry">
            <mxPoint as="offset" />
          </mxGeometry>
        </mxCell>
        <mxCell id="yHelPnOU9mAiEzxVV33Z-21" value="Is the certificate&#39;s view greater than or equal to our latest known view?" style="whiteSpace=wrap;html=1;rounded=0;fillColor=#dae8fc;strokeColor=#6c8ebf;strokeWidth=2;" vertex="1" parent="1">
          <mxGeometry x="90" y="450" width="120" height="60" as="geometry" />
        </mxCell>
        <mxCell id="yHelPnOU9mAiEzxVV33Z-22" value="Certificate is too old" style="whiteSpace=wrap;html=1;fillColor=#f8cecc;strokeColor=#b85450;rounded=1;arcSize=50;verticalLabelPosition=bottom;verticalAlign=top;shape=mxgraph.flowchart.or;strokeWidth=6;" vertex="1" parent="1">
          <mxGeometry x="300" y="450" width="60" height="60" as="geometry" />
        </mxCell>
        <mxCell id="yHelPnOU9mAiEzxVV33Z-23" style="edgeStyle=orthogonalEdgeStyle;rounded=0;orthogonalLoop=1;jettySize=auto;html=1;entryX=0;entryY=0.5;entryDx=0;entryDy=0;entryPerimeter=0;" edge="1" parent="1" source="yHelPnOU9mAiEzxVV33Z-21" target="yHelPnOU9mAiEzxVV33Z-22">
          <mxGeometry relative="1" as="geometry" />
        </mxCell>
        <mxCell id="yHelPnOU9mAiEzxVV33Z-24" value="No" style="edgeLabel;html=1;align=center;verticalAlign=middle;resizable=0;points=[];" vertex="1" connectable="0" parent="yHelPnOU9mAiEzxVV33Z-23">
          <mxGeometry x="-0.0444" relative="1" as="geometry">
            <mxPoint as="offset" />
          </mxGeometry>
        </mxCell>
        <mxCell id="yHelPnOU9mAiEzxVV33Z-27" style="edgeStyle=orthogonalEdgeStyle;rounded=0;orthogonalLoop=1;jettySize=auto;html=1;" edge="1" parent="1" source="yHelPnOU9mAiEzxVV33Z-28" target="yHelPnOU9mAiEzxVV33Z-47">
          <mxGeometry relative="1" as="geometry" />
        </mxCell>
        <mxCell id="yHelPnOU9mAiEzxVV33Z-28" value="OptimisticDACertificateValidated(certificate)" style="whiteSpace=wrap;html=1;fillColor=#d5e8d4;strokeColor=#82b366;rounded=1;arcSize=50;strokeWidth=2;" vertex="1" parent="1">
          <mxGeometry x="27.5" y="780" width="245" height="60" as="geometry" />
        </mxCell>
        <mxCell id="yHelPnOU9mAiEzxVV33Z-29" style="edgeStyle=orthogonalEdgeStyle;rounded=0;orthogonalLoop=1;jettySize=auto;html=1;" edge="1" parent="1" source="yHelPnOU9mAiEzxVV33Z-33" target="yHelPnOU9mAiEzxVV33Z-34">
          <mxGeometry relative="1" as="geometry" />
        </mxCell>
        <mxCell id="yHelPnOU9mAiEzxVV33Z-30" value="No" style="edgeLabel;html=1;align=center;verticalAlign=middle;resizable=0;points=[];" vertex="1" connectable="0" parent="yHelPnOU9mAiEzxVV33Z-29">
          <mxGeometry x="-0.0444" relative="1" as="geometry">
            <mxPoint as="offset" />
          </mxGeometry>
        </mxCell>
        <mxCell id="yHelPnOU9mAiEzxVV33Z-31" value="" style="edgeStyle=orthogonalEdgeStyle;rounded=0;orthogonalLoop=1;jettySize=auto;html=1;entryX=0.5;entryY=0;entryDx=0;entryDy=0;" edge="1" parent="1" source="yHelPnOU9mAiEzxVV33Z-33" target="yHelPnOU9mAiEzxVV33Z-28">
          <mxGeometry relative="1" as="geometry">
            <mxPoint x="150" y="730" as="targetPoint" />
          </mxGeometry>
        </mxCell>
        <mxCell id="yHelPnOU9mAiEzxVV33Z-32" value="Yes" style="edgeLabel;html=1;align=center;verticalAlign=middle;resizable=0;points=[];" vertex="1" connectable="0" parent="yHelPnOU9mAiEzxVV33Z-31">
          <mxGeometry x="-0.025" relative="1" as="geometry">
            <mxPoint as="offset" />
          </mxGeometry>
        </mxCell>
        <mxCell id="yHelPnOU9mAiEzxVV33Z-33" value="Is certificate valid?" style="whiteSpace=wrap;html=1;rounded=0;fillColor=#dae8fc;strokeColor=#6c8ebf;strokeWidth=2;" vertex="1" parent="1">
          <mxGeometry x="90" y="590" width="120" height="60" as="geometry" />
        </mxCell>
        <mxCell id="yHelPnOU9mAiEzxVV33Z-34" value="Certificate is invalid" style="whiteSpace=wrap;html=1;fillColor=#f8cecc;strokeColor=#b85450;rounded=1;arcSize=50;verticalLabelPosition=bottom;verticalAlign=top;shape=mxgraph.flowchart.or;strokeWidth=6;" vertex="1" parent="1">
          <mxGeometry x="300" y="590" width="60" height="60" as="geometry" />
        </mxCell>
        <mxCell id="yHelPnOU9mAiEzxVV33Z-39" style="edgeStyle=orthogonalEdgeStyle;rounded=0;orthogonalLoop=1;jettySize=auto;html=1;" edge="1" parent="1" target="yHelPnOU9mAiEzxVV33Z-37">
          <mxGeometry relative="1" as="geometry">
            <mxPoint x="150" y="790" as="sourcePoint" />
          </mxGeometry>
        </mxCell>
        <mxCell id="yHelPnOU9mAiEzxVV33Z-40" value="Yes" style="edgeLabel;html=1;align=center;verticalAlign=middle;resizable=0;points=[];" vertex="1" connectable="0" parent="yHelPnOU9mAiEzxVV33Z-39">
          <mxGeometry x="-0.025" y="1" relative="1" as="geometry">
            <mxPoint as="offset" />
          </mxGeometry>
        </mxCell>
        <mxCell id="yHelPnOU9mAiEzxVV33Z-43" style="edgeStyle=orthogonalEdgeStyle;rounded=0;orthogonalLoop=1;jettySize=auto;html=1;entryX=0;entryY=0.5;entryDx=0;entryDy=0;entryPerimeter=0;" edge="1" parent="1" target="yHelPnOU9mAiEzxVV33Z-42">
          <mxGeometry relative="1" as="geometry">
            <mxPoint x="210" y="760" as="sourcePoint" />
          </mxGeometry>
        </mxCell>
        <mxCell id="yHelPnOU9mAiEzxVV33Z-44" value="No" style="edgeLabel;html=1;align=center;verticalAlign=middle;resizable=0;points=[];" vertex="1" connectable="0" parent="yHelPnOU9mAiEzxVV33Z-43">
          <mxGeometry x="-0.0667" y="-1" relative="1" as="geometry">
            <mxPoint as="offset" />
          </mxGeometry>
        </mxCell>
        <mxCell id="yHelPnOU9mAiEzxVV33Z-45" style="edgeStyle=orthogonalEdgeStyle;rounded=0;orthogonalLoop=1;jettySize=auto;html=1;entryX=0;entryY=0.5;entryDx=0;entryDy=0;entryPerimeter=0;" edge="1" parent="1" target="yHelPnOU9mAiEzxVV33Z-38">
          <mxGeometry relative="1" as="geometry">
            <mxPoint x="210" y="900" as="sourcePoint" />
          </mxGeometry>
        </mxCell>
        <mxCell id="yHelPnOU9mAiEzxVV33Z-46" value="No" style="edgeLabel;html=1;align=center;verticalAlign=middle;resizable=0;points=[];" vertex="1" connectable="0" parent="yHelPnOU9mAiEzxVV33Z-45">
          <mxGeometry x="-0.0889" y="-1" relative="1" as="geometry">
            <mxPoint as="offset" />
          </mxGeometry>
        </mxCell>
        <mxCell id="yHelPnOU9mAiEzxVV33Z-47" value="Certificate is valid" style="whiteSpace=wrap;html=1;fillColor=#d5e8d4;strokeColor=#82b366;rounded=1;arcSize=50;verticalLabelPosition=bottom;verticalAlign=top;shape=mxgraph.flowchart.or;strokeWidth=6;" vertex="1" parent="1">
          <mxGeometry x="120" y="920" width="60" height="60" as="geometry" />
        </mxCell>
      </root>
    </mxGraphModel>
  </diagram>
  <diagram id="TU07nGtA0pB30szmiKrM" name="VIDShareRecv">
    <mxGraphModel dx="1242" dy="818" grid="1" gridSize="10" guides="1" tooltips="1" connect="1" arrows="1" fold="1" page="1" pageScale="1" pageWidth="850" pageHeight="1100" math="0" shadow="0">
      <root>
        <mxCell id="0" />
        <mxCell id="1" parent="0" />
        <mxCell id="FXWmWwWMCox1cQ1Id0xH-1" value="&lt;b&gt;Basic Message Validation&lt;/b&gt;" style="rounded=0;whiteSpace=wrap;html=1;labelPosition=center;verticalLabelPosition=bottom;align=right;verticalAlign=top;dashed=1;strokeWidth=2;fillColor=#F5F5F5;" vertex="1" parent="1">
          <mxGeometry x="40" y="410" width="470" height="450" as="geometry" />
        </mxCell>
        <mxCell id="FXWmWwWMCox1cQ1Id0xH-2" value="&lt;h1 style=&quot;line-height: 100%;&quot;&gt;VIDShareRecv&lt;/h1&gt;&lt;p style=&quot;line-height: 100%;&quot;&gt;Validates and stores a VID share&lt;/p&gt;" style="text;html=1;strokeColor=none;fillColor=none;spacing=5;spacingTop=-20;whiteSpace=wrap;overflow=hidden;rounded=0;" vertex="1" parent="1">
          <mxGeometry x="40" y="40" width="350" height="70" as="geometry" />
        </mxCell>
        <mxCell id="FXWmWwWMCox1cQ1Id0xH-3" value="" style="endArrow=none;html=1;rounded=0;" edge="1" parent="1">
          <mxGeometry width="50" height="50" relative="1" as="geometry">
            <mxPoint x="40" y="120" as="sourcePoint" />
            <mxPoint x="800" y="120" as="targetPoint" />
          </mxGeometry>
        </mxCell>
        <mxCell id="FXWmWwWMCox1cQ1Id0xH-4" value="&lt;b&gt;Task Storage&lt;/b&gt;" style="swimlane;fontStyle=0;childLayout=stackLayout;horizontal=1;startSize=30;horizontalStack=0;resizeParent=1;resizeParentMax=0;resizeLast=0;collapsible=1;marginBottom=0;whiteSpace=wrap;html=1;" vertex="1" parent="1">
          <mxGeometry x="40" y="140" width="160" height="120" as="geometry">
            <mxRectangle x="40" y="140" width="60" height="30" as="alternateBounds" />
          </mxGeometry>
        </mxCell>
        <mxCell id="FXWmWwWMCox1cQ1Id0xH-5" value="s" style="text;strokeColor=none;fillColor=none;align=left;verticalAlign=middle;spacingLeft=4;spacingRight=4;overflow=hidden;points=[[0,0.5],[1,0.5]];portConstraint=eastwest;rotatable=0;whiteSpace=wrap;html=1;" vertex="1" parent="FXWmWwWMCox1cQ1Id0xH-4">
          <mxGeometry y="30" width="160" height="30" as="geometry" />
        </mxCell>
        <mxCell id="FXWmWwWMCox1cQ1Id0xH-6" value="Item 2" style="text;strokeColor=none;fillColor=none;align=left;verticalAlign=middle;spacingLeft=4;spacingRight=4;overflow=hidden;points=[[0,0.5],[1,0.5]];portConstraint=eastwest;rotatable=0;whiteSpace=wrap;html=1;" vertex="1" parent="FXWmWwWMCox1cQ1Id0xH-4">
          <mxGeometry y="60" width="160" height="30" as="geometry" />
        </mxCell>
        <mxCell id="FXWmWwWMCox1cQ1Id0xH-7" value="Item 3" style="text;strokeColor=none;fillColor=none;align=left;verticalAlign=middle;spacingLeft=4;spacingRight=4;overflow=hidden;points=[[0,0.5],[1,0.5]];portConstraint=eastwest;rotatable=0;whiteSpace=wrap;html=1;" vertex="1" parent="FXWmWwWMCox1cQ1Id0xH-4">
          <mxGeometry y="90" width="160" height="30" as="geometry" />
        </mxCell>
        <mxCell id="FXWmWwWMCox1cQ1Id0xH-8" value="&lt;b&gt;Possible Outputs&lt;/b&gt;" style="swimlane;fontStyle=0;childLayout=stackLayout;horizontal=1;startSize=30;horizontalStack=0;resizeParent=1;resizeParentMax=0;resizeLast=0;collapsible=1;marginBottom=0;whiteSpace=wrap;html=1;" vertex="1" parent="1">
          <mxGeometry x="240" y="140" width="160" height="120" as="geometry" />
        </mxCell>
        <mxCell id="FXWmWwWMCox1cQ1Id0xH-9" value="Item 1" style="text;strokeColor=none;fillColor=none;align=left;verticalAlign=middle;spacingLeft=4;spacingRight=4;overflow=hidden;points=[[0,0.5],[1,0.5]];portConstraint=eastwest;rotatable=0;whiteSpace=wrap;html=1;" vertex="1" parent="FXWmWwWMCox1cQ1Id0xH-8">
          <mxGeometry y="30" width="160" height="30" as="geometry" />
        </mxCell>
        <mxCell id="FXWmWwWMCox1cQ1Id0xH-10" value="Item 2" style="text;strokeColor=none;fillColor=none;align=left;verticalAlign=middle;spacingLeft=4;spacingRight=4;overflow=hidden;points=[[0,0.5],[1,0.5]];portConstraint=eastwest;rotatable=0;whiteSpace=wrap;html=1;" vertex="1" parent="FXWmWwWMCox1cQ1Id0xH-8">
          <mxGeometry y="60" width="160" height="30" as="geometry" />
        </mxCell>
        <mxCell id="FXWmWwWMCox1cQ1Id0xH-11" value="Item 3" style="text;strokeColor=none;fillColor=none;align=left;verticalAlign=middle;spacingLeft=4;spacingRight=4;overflow=hidden;points=[[0,0.5],[1,0.5]];portConstraint=eastwest;rotatable=0;whiteSpace=wrap;html=1;" vertex="1" parent="FXWmWwWMCox1cQ1Id0xH-8">
          <mxGeometry y="90" width="160" height="30" as="geometry" />
        </mxCell>
        <mxCell id="FXWmWwWMCox1cQ1Id0xH-12" value="&lt;b&gt;Possible Spawning Tasks&lt;/b&gt;" style="swimlane;fontStyle=0;childLayout=stackLayout;horizontal=1;startSize=30;horizontalStack=0;resizeParent=1;resizeParentMax=0;resizeLast=0;collapsible=1;marginBottom=0;whiteSpace=wrap;html=1;" vertex="1" parent="1">
          <mxGeometry x="440" y="140" width="160" height="120" as="geometry" />
        </mxCell>
        <mxCell id="FXWmWwWMCox1cQ1Id0xH-13" value="Item 1" style="text;strokeColor=none;fillColor=none;align=left;verticalAlign=middle;spacingLeft=4;spacingRight=4;overflow=hidden;points=[[0,0.5],[1,0.5]];portConstraint=eastwest;rotatable=0;whiteSpace=wrap;html=1;" vertex="1" parent="FXWmWwWMCox1cQ1Id0xH-12">
          <mxGeometry y="30" width="160" height="30" as="geometry" />
        </mxCell>
        <mxCell id="FXWmWwWMCox1cQ1Id0xH-14" value="Item 2" style="text;strokeColor=none;fillColor=none;align=left;verticalAlign=middle;spacingLeft=4;spacingRight=4;overflow=hidden;points=[[0,0.5],[1,0.5]];portConstraint=eastwest;rotatable=0;whiteSpace=wrap;html=1;" vertex="1" parent="FXWmWwWMCox1cQ1Id0xH-12">
          <mxGeometry y="60" width="160" height="30" as="geometry" />
        </mxCell>
        <mxCell id="FXWmWwWMCox1cQ1Id0xH-15" value="Item 3" style="text;strokeColor=none;fillColor=none;align=left;verticalAlign=middle;spacingLeft=4;spacingRight=4;overflow=hidden;points=[[0,0.5],[1,0.5]];portConstraint=eastwest;rotatable=0;whiteSpace=wrap;html=1;" vertex="1" parent="FXWmWwWMCox1cQ1Id0xH-12">
          <mxGeometry y="90" width="160" height="30" as="geometry" />
        </mxCell>
        <mxCell id="FXWmWwWMCox1cQ1Id0xH-16" value="" style="endArrow=none;html=1;rounded=0;" edge="1" parent="1">
          <mxGeometry width="50" height="50" relative="1" as="geometry">
            <mxPoint x="40" y="280" as="sourcePoint" />
            <mxPoint x="800" y="280" as="targetPoint" />
          </mxGeometry>
        </mxCell>
        <mxCell id="FXWmWwWMCox1cQ1Id0xH-17" style="edgeStyle=orthogonalEdgeStyle;rounded=0;orthogonalLoop=1;jettySize=auto;html=1;entryX=0.5;entryY=0;entryDx=0;entryDy=0;" edge="1" parent="1" source="FXWmWwWMCox1cQ1Id0xH-18" target="FXWmWwWMCox1cQ1Id0xH-21">
          <mxGeometry relative="1" as="geometry" />
        </mxCell>
        <mxCell id="FXWmWwWMCox1cQ1Id0xH-18" value="VIDShareRecv(share)" style="rounded=1;whiteSpace=wrap;html=1;fillColor=#fff2cc;strokeColor=#d6b656;arcSize=50;strokeWidth=2;" vertex="1" parent="1">
          <mxGeometry x="40" y="320" width="220" height="60" as="geometry" />
        </mxCell>
        <mxCell id="FXWmWwWMCox1cQ1Id0xH-38" style="edgeStyle=orthogonalEdgeStyle;rounded=0;orthogonalLoop=1;jettySize=auto;html=1;" edge="1" parent="1" source="FXWmWwWMCox1cQ1Id0xH-21" target="FXWmWwWMCox1cQ1Id0xH-34">
          <mxGeometry relative="1" as="geometry" />
        </mxCell>
        <mxCell id="FXWmWwWMCox1cQ1Id0xH-39" value="Yes" style="edgeLabel;html=1;align=center;verticalAlign=middle;resizable=0;points=[];" vertex="1" connectable="0" parent="FXWmWwWMCox1cQ1Id0xH-38">
          <mxGeometry x="-0.025" relative="1" as="geometry">
            <mxPoint as="offset" />
          </mxGeometry>
        </mxCell>
        <mxCell id="FXWmWwWMCox1cQ1Id0xH-21" value="Is the share&#39;s view greater than or equal to our latest known view?" style="whiteSpace=wrap;html=1;rounded=0;fillColor=#dae8fc;strokeColor=#6c8ebf;strokeWidth=2;" vertex="1" parent="1">
          <mxGeometry x="90" y="450" width="120" height="60" as="geometry" />
        </mxCell>
        <mxCell id="FXWmWwWMCox1cQ1Id0xH-22" value="Share signature is invalid" style="whiteSpace=wrap;html=1;fillColor=#f8cecc;strokeColor=#b85450;rounded=1;arcSize=50;verticalLabelPosition=bottom;verticalAlign=top;shape=mxgraph.flowchart.or;strokeWidth=6;" vertex="1" parent="1">
          <mxGeometry x="300" y="450" width="60" height="60" as="geometry" />
        </mxCell>
        <mxCell id="FXWmWwWMCox1cQ1Id0xH-23" style="edgeStyle=orthogonalEdgeStyle;rounded=0;orthogonalLoop=1;jettySize=auto;html=1;entryX=0;entryY=0.5;entryDx=0;entryDy=0;entryPerimeter=0;" edge="1" parent="1" source="FXWmWwWMCox1cQ1Id0xH-21" target="FXWmWwWMCox1cQ1Id0xH-22">
          <mxGeometry relative="1" as="geometry" />
        </mxCell>
        <mxCell id="FXWmWwWMCox1cQ1Id0xH-24" value="No" style="edgeLabel;html=1;align=center;verticalAlign=middle;resizable=0;points=[];" vertex="1" connectable="0" parent="FXWmWwWMCox1cQ1Id0xH-23">
          <mxGeometry x="-0.0444" relative="1" as="geometry">
            <mxPoint as="offset" />
          </mxGeometry>
        </mxCell>
        <mxCell id="FXWmWwWMCox1cQ1Id0xH-25" style="edgeStyle=orthogonalEdgeStyle;rounded=0;orthogonalLoop=1;jettySize=auto;html=1;" edge="1" parent="1" source="FXWmWwWMCox1cQ1Id0xH-26" target="FXWmWwWMCox1cQ1Id0xH-33">
          <mxGeometry relative="1" as="geometry" />
        </mxCell>
        <mxCell id="FXWmWwWMCox1cQ1Id0xH-26" value="VIDShareValidated(share)" style="whiteSpace=wrap;html=1;fillColor=#d5e8d4;strokeColor=#82b366;rounded=1;arcSize=50;strokeWidth=2;" vertex="1" parent="1">
          <mxGeometry x="27.5" y="1230" width="245" height="60" as="geometry" />
        </mxCell>
        <mxCell id="FXWmWwWMCox1cQ1Id0xH-27" style="edgeStyle=orthogonalEdgeStyle;rounded=0;orthogonalLoop=1;jettySize=auto;html=1;" edge="1" parent="1" source="FXWmWwWMCox1cQ1Id0xH-31" target="FXWmWwWMCox1cQ1Id0xH-32">
          <mxGeometry relative="1" as="geometry" />
        </mxCell>
        <mxCell id="FXWmWwWMCox1cQ1Id0xH-28" value="No" style="edgeLabel;html=1;align=center;verticalAlign=middle;resizable=0;points=[];" vertex="1" connectable="0" parent="FXWmWwWMCox1cQ1Id0xH-27">
          <mxGeometry x="-0.0444" relative="1" as="geometry">
            <mxPoint as="offset" />
          </mxGeometry>
        </mxCell>
        <mxCell id="FXWmWwWMCox1cQ1Id0xH-43" value="" style="edgeStyle=orthogonalEdgeStyle;rounded=0;orthogonalLoop=1;jettySize=auto;html=1;" edge="1" parent="1" source="FXWmWwWMCox1cQ1Id0xH-31" target="FXWmWwWMCox1cQ1Id0xH-42">
          <mxGeometry relative="1" as="geometry" />
        </mxCell>
        <mxCell id="H_zTydYa-VCq1dUgayh1-4" value="Yes" style="edgeLabel;html=1;align=center;verticalAlign=middle;resizable=0;points=[];" vertex="1" connectable="0" parent="FXWmWwWMCox1cQ1Id0xH-43">
          <mxGeometry x="-0.1833" y="-1" relative="1" as="geometry">
            <mxPoint as="offset" />
          </mxGeometry>
        </mxCell>
        <mxCell id="FXWmWwWMCox1cQ1Id0xH-31" value="Is the share correctly signed by the leader of the share&#39;s view?" style="whiteSpace=wrap;html=1;rounded=0;fillColor=#dae8fc;strokeColor=#6c8ebf;strokeWidth=2;" vertex="1" parent="1">
          <mxGeometry x="90" y="730" width="120" height="60" as="geometry" />
        </mxCell>
        <mxCell id="FXWmWwWMCox1cQ1Id0xH-32" value="Share signature is invalid" style="whiteSpace=wrap;html=1;fillColor=#f8cecc;strokeColor=#b85450;rounded=1;arcSize=50;verticalLabelPosition=bottom;verticalAlign=top;shape=mxgraph.flowchart.or;strokeWidth=6;" vertex="1" parent="1">
          <mxGeometry x="300" y="730" width="60" height="60" as="geometry" />
        </mxCell>
        <mxCell id="FXWmWwWMCox1cQ1Id0xH-33" value="Share is valid" style="whiteSpace=wrap;html=1;fillColor=#d5e8d4;strokeColor=#82b366;rounded=1;arcSize=50;verticalLabelPosition=bottom;verticalAlign=top;shape=mxgraph.flowchart.or;strokeWidth=6;" vertex="1" parent="1">
          <mxGeometry x="120" y="1370" width="60" height="60" as="geometry" />
        </mxCell>
        <mxCell id="FXWmWwWMCox1cQ1Id0xH-40" style="edgeStyle=orthogonalEdgeStyle;rounded=0;orthogonalLoop=1;jettySize=auto;html=1;" edge="1" parent="1" source="FXWmWwWMCox1cQ1Id0xH-34" target="FXWmWwWMCox1cQ1Id0xH-31">
          <mxGeometry relative="1" as="geometry" />
        </mxCell>
        <mxCell id="FXWmWwWMCox1cQ1Id0xH-41" value="Yes" style="edgeLabel;html=1;align=center;verticalAlign=middle;resizable=0;points=[];" vertex="1" connectable="0" parent="FXWmWwWMCox1cQ1Id0xH-40">
          <mxGeometry x="-0.025" y="1" relative="1" as="geometry">
            <mxPoint as="offset" />
          </mxGeometry>
        </mxCell>
        <mxCell id="FXWmWwWMCox1cQ1Id0xH-34" value="Have we already seen a share for this view?" style="whiteSpace=wrap;html=1;rounded=0;fillColor=#dae8fc;strokeColor=#6c8ebf;strokeWidth=2;" vertex="1" parent="1">
          <mxGeometry x="90" y="590" width="120" height="60" as="geometry" />
        </mxCell>
        <mxCell id="FXWmWwWMCox1cQ1Id0xH-35" value="We&#39;ve already seen a share for this view" style="whiteSpace=wrap;html=1;fillColor=#f8cecc;strokeColor=#b85450;rounded=1;arcSize=50;verticalLabelPosition=bottom;verticalAlign=top;shape=mxgraph.flowchart.or;strokeWidth=6;" vertex="1" parent="1">
          <mxGeometry x="300" y="590" width="60" height="60" as="geometry" />
        </mxCell>
        <mxCell id="FXWmWwWMCox1cQ1Id0xH-36" style="edgeStyle=orthogonalEdgeStyle;rounded=0;orthogonalLoop=1;jettySize=auto;html=1;entryX=0;entryY=0.5;entryDx=0;entryDy=0;entryPerimeter=0;" edge="1" parent="1" source="FXWmWwWMCox1cQ1Id0xH-34" target="FXWmWwWMCox1cQ1Id0xH-35">
          <mxGeometry relative="1" as="geometry" />
        </mxCell>
        <mxCell id="FXWmWwWMCox1cQ1Id0xH-37" value="No" style="edgeLabel;html=1;align=center;verticalAlign=middle;resizable=0;points=[];" vertex="1" connectable="0" parent="FXWmWwWMCox1cQ1Id0xH-36">
          <mxGeometry x="-0.0444" relative="1" as="geometry">
            <mxPoint as="offset" />
          </mxGeometry>
        </mxCell>
        <mxCell id="FXWmWwWMCox1cQ1Id0xH-45" style="edgeStyle=orthogonalEdgeStyle;rounded=0;orthogonalLoop=1;jettySize=auto;html=1;" edge="1" parent="1" source="FXWmWwWMCox1cQ1Id0xH-42" target="FXWmWwWMCox1cQ1Id0xH-44">
          <mxGeometry relative="1" as="geometry" />
        </mxCell>
        <mxCell id="H_zTydYa-VCq1dUgayh1-7" value="No" style="edgeLabel;html=1;align=center;verticalAlign=middle;resizable=0;points=[];" vertex="1" connectable="0" parent="FXWmWwWMCox1cQ1Id0xH-45">
          <mxGeometry x="-0.0667" y="1" relative="1" as="geometry">
            <mxPoint as="offset" />
          </mxGeometry>
        </mxCell>
        <mxCell id="H_zTydYa-VCq1dUgayh1-2" style="edgeStyle=orthogonalEdgeStyle;rounded=0;orthogonalLoop=1;jettySize=auto;html=1;" edge="1" parent="1" source="FXWmWwWMCox1cQ1Id0xH-42" target="H_zTydYa-VCq1dUgayh1-1">
          <mxGeometry relative="1" as="geometry" />
        </mxCell>
        <mxCell id="H_zTydYa-VCq1dUgayh1-5" value="Yes" style="edgeLabel;html=1;align=center;verticalAlign=middle;resizable=0;points=[];" vertex="1" connectable="0" parent="H_zTydYa-VCq1dUgayh1-2">
          <mxGeometry x="-0.175" relative="1" as="geometry">
            <mxPoint as="offset" />
          </mxGeometry>
        </mxCell>
        <mxCell id="FXWmWwWMCox1cQ1Id0xH-42" value="Is the share valid?" style="whiteSpace=wrap;html=1;rounded=0;fillColor=#dae8fc;strokeColor=#6c8ebf;strokeWidth=2;" vertex="1" parent="1">
          <mxGeometry x="90" y="910" width="120" height="60" as="geometry" />
        </mxCell>
        <mxCell id="FXWmWwWMCox1cQ1Id0xH-44" value="Share is invalid" style="whiteSpace=wrap;html=1;fillColor=#f8cecc;strokeColor=#b85450;rounded=1;arcSize=50;verticalLabelPosition=bottom;verticalAlign=top;shape=mxgraph.flowchart.or;strokeWidth=6;" vertex="1" parent="1">
          <mxGeometry x="300" y="910" width="60" height="60" as="geometry" />
        </mxCell>
        <mxCell id="H_zTydYa-VCq1dUgayh1-3" style="edgeStyle=orthogonalEdgeStyle;rounded=0;orthogonalLoop=1;jettySize=auto;html=1;" edge="1" parent="1" source="H_zTydYa-VCq1dUgayh1-1" target="FXWmWwWMCox1cQ1Id0xH-26">
          <mxGeometry relative="1" as="geometry" />
        </mxCell>
        <mxCell id="H_zTydYa-VCq1dUgayh1-6" value="Yes" style="edgeLabel;html=1;align=center;verticalAlign=middle;resizable=0;points=[];" vertex="1" connectable="0" parent="H_zTydYa-VCq1dUgayh1-3">
          <mxGeometry x="-0.05" relative="1" as="geometry">
            <mxPoint as="offset" />
          </mxGeometry>
        </mxCell>
        <mxCell id="H_zTydYa-VCq1dUgayh1-1" value="Store share in state map" style="strokeWidth=2;html=1;shape=datastore;whiteSpace=wrap;labelPosition=center;verticalLabelPosition=middle;align=center;verticalAlign=top;fillColor=#ffe6cc;strokeColor=#d79b00;" vertex="1" parent="1">
          <mxGeometry x="105" y="1050" width="90" height="100" as="geometry" />
        </mxCell>
      </root>
    </mxGraphModel>
  </diagram>
  <diagram id="uobs043Ffmeti9TvJl3q" name="VoteOnQuorumProposal">
    <mxGraphModel dx="1242" dy="818" grid="1" gridSize="10" guides="1" tooltips="1" connect="1" arrows="1" fold="1" page="1" pageScale="1" pageWidth="850" pageHeight="1100" math="0" shadow="0">
      <root>
        <mxCell id="0" />
        <mxCell id="1" parent="0" />
        <mxCell id="iEkel0ebpZ4LdczcetA3-2" value="&lt;h1 style=&quot;line-height: 100%;&quot;&gt;VoteOnQuorumProposal&lt;/h1&gt;&lt;p style=&quot;line-height: 100%;&quot;&gt;Determines whether we can vote on a quorum proposal&lt;/p&gt;" style="text;html=1;strokeColor=none;fillColor=none;spacing=5;spacingTop=-20;whiteSpace=wrap;overflow=hidden;rounded=0;" parent="1" vertex="1">
          <mxGeometry x="40" y="40" width="350" height="70" as="geometry" />
        </mxCell>
        <mxCell id="iEkel0ebpZ4LdczcetA3-3" value="" style="endArrow=none;html=1;rounded=0;" parent="1" edge="1">
          <mxGeometry width="50" height="50" relative="1" as="geometry">
            <mxPoint x="40" y="120" as="sourcePoint" />
            <mxPoint x="800" y="120" as="targetPoint" />
          </mxGeometry>
        </mxCell>
        <mxCell id="iEkel0ebpZ4LdczcetA3-4" value="&lt;b&gt;Task Storage&lt;/b&gt;" style="swimlane;fontStyle=0;childLayout=stackLayout;horizontal=1;startSize=30;horizontalStack=0;resizeParent=1;resizeParentMax=0;resizeLast=0;collapsible=1;marginBottom=0;whiteSpace=wrap;html=1;" parent="1" vertex="1">
          <mxGeometry x="40" y="140" width="160" height="120" as="geometry">
            <mxRectangle x="40" y="140" width="60" height="30" as="alternateBounds" />
          </mxGeometry>
        </mxCell>
        <mxCell id="iEkel0ebpZ4LdczcetA3-5" value="s" style="text;strokeColor=none;fillColor=none;align=left;verticalAlign=middle;spacingLeft=4;spacingRight=4;overflow=hidden;points=[[0,0.5],[1,0.5]];portConstraint=eastwest;rotatable=0;whiteSpace=wrap;html=1;" parent="iEkel0ebpZ4LdczcetA3-4" vertex="1">
          <mxGeometry y="30" width="160" height="30" as="geometry" />
        </mxCell>
        <mxCell id="iEkel0ebpZ4LdczcetA3-6" value="Item 2" style="text;strokeColor=none;fillColor=none;align=left;verticalAlign=middle;spacingLeft=4;spacingRight=4;overflow=hidden;points=[[0,0.5],[1,0.5]];portConstraint=eastwest;rotatable=0;whiteSpace=wrap;html=1;" parent="iEkel0ebpZ4LdczcetA3-4" vertex="1">
          <mxGeometry y="60" width="160" height="30" as="geometry" />
        </mxCell>
        <mxCell id="iEkel0ebpZ4LdczcetA3-7" value="Item 3" style="text;strokeColor=none;fillColor=none;align=left;verticalAlign=middle;spacingLeft=4;spacingRight=4;overflow=hidden;points=[[0,0.5],[1,0.5]];portConstraint=eastwest;rotatable=0;whiteSpace=wrap;html=1;" parent="iEkel0ebpZ4LdczcetA3-4" vertex="1">
          <mxGeometry y="90" width="160" height="30" as="geometry" />
        </mxCell>
        <mxCell id="iEkel0ebpZ4LdczcetA3-8" value="&lt;b&gt;Possible Outputs&lt;/b&gt;" style="swimlane;fontStyle=0;childLayout=stackLayout;horizontal=1;startSize=30;horizontalStack=0;resizeParent=1;resizeParentMax=0;resizeLast=0;collapsible=1;marginBottom=0;whiteSpace=wrap;html=1;" parent="1" vertex="1">
          <mxGeometry x="240" y="140" width="160" height="120" as="geometry" />
        </mxCell>
        <mxCell id="iEkel0ebpZ4LdczcetA3-9" value="Item 1" style="text;strokeColor=none;fillColor=none;align=left;verticalAlign=middle;spacingLeft=4;spacingRight=4;overflow=hidden;points=[[0,0.5],[1,0.5]];portConstraint=eastwest;rotatable=0;whiteSpace=wrap;html=1;" parent="iEkel0ebpZ4LdczcetA3-8" vertex="1">
          <mxGeometry y="30" width="160" height="30" as="geometry" />
        </mxCell>
        <mxCell id="iEkel0ebpZ4LdczcetA3-10" value="Item 2" style="text;strokeColor=none;fillColor=none;align=left;verticalAlign=middle;spacingLeft=4;spacingRight=4;overflow=hidden;points=[[0,0.5],[1,0.5]];portConstraint=eastwest;rotatable=0;whiteSpace=wrap;html=1;" parent="iEkel0ebpZ4LdczcetA3-8" vertex="1">
          <mxGeometry y="60" width="160" height="30" as="geometry" />
        </mxCell>
        <mxCell id="iEkel0ebpZ4LdczcetA3-11" value="Item 3" style="text;strokeColor=none;fillColor=none;align=left;verticalAlign=middle;spacingLeft=4;spacingRight=4;overflow=hidden;points=[[0,0.5],[1,0.5]];portConstraint=eastwest;rotatable=0;whiteSpace=wrap;html=1;" parent="iEkel0ebpZ4LdczcetA3-8" vertex="1">
          <mxGeometry y="90" width="160" height="30" as="geometry" />
        </mxCell>
        <mxCell id="iEkel0ebpZ4LdczcetA3-12" value="&lt;b&gt;Possible Spawning Tasks&lt;/b&gt;" style="swimlane;fontStyle=0;childLayout=stackLayout;horizontal=1;startSize=30;horizontalStack=0;resizeParent=1;resizeParentMax=0;resizeLast=0;collapsible=1;marginBottom=0;whiteSpace=wrap;html=1;" parent="1" vertex="1">
          <mxGeometry x="440" y="140" width="160" height="120" as="geometry" />
        </mxCell>
        <mxCell id="iEkel0ebpZ4LdczcetA3-13" value="Item 1" style="text;strokeColor=none;fillColor=none;align=left;verticalAlign=middle;spacingLeft=4;spacingRight=4;overflow=hidden;points=[[0,0.5],[1,0.5]];portConstraint=eastwest;rotatable=0;whiteSpace=wrap;html=1;" parent="iEkel0ebpZ4LdczcetA3-12" vertex="1">
          <mxGeometry y="30" width="160" height="30" as="geometry" />
        </mxCell>
        <mxCell id="iEkel0ebpZ4LdczcetA3-14" value="Item 2" style="text;strokeColor=none;fillColor=none;align=left;verticalAlign=middle;spacingLeft=4;spacingRight=4;overflow=hidden;points=[[0,0.5],[1,0.5]];portConstraint=eastwest;rotatable=0;whiteSpace=wrap;html=1;" parent="iEkel0ebpZ4LdczcetA3-12" vertex="1">
          <mxGeometry y="60" width="160" height="30" as="geometry" />
        </mxCell>
        <mxCell id="iEkel0ebpZ4LdczcetA3-15" value="Item 3" style="text;strokeColor=none;fillColor=none;align=left;verticalAlign=middle;spacingLeft=4;spacingRight=4;overflow=hidden;points=[[0,0.5],[1,0.5]];portConstraint=eastwest;rotatable=0;whiteSpace=wrap;html=1;" parent="iEkel0ebpZ4LdczcetA3-12" vertex="1">
          <mxGeometry y="90" width="160" height="30" as="geometry" />
        </mxCell>
        <mxCell id="iEkel0ebpZ4LdczcetA3-16" value="" style="endArrow=none;html=1;rounded=0;" parent="1" edge="1">
          <mxGeometry width="50" height="50" relative="1" as="geometry">
            <mxPoint x="40" y="280" as="sourcePoint" />
            <mxPoint x="800" y="280" as="targetPoint" />
          </mxGeometry>
        </mxCell>
        <mxCell id="EE9Pe7geURXfpLOKtEPJ-1" style="edgeStyle=orthogonalEdgeStyle;rounded=0;orthogonalLoop=1;jettySize=auto;html=1;" parent="1" source="iEkel0ebpZ4LdczcetA3-18" target="iEkel0ebpZ4LdczcetA3-21" edge="1">
          <mxGeometry relative="1" as="geometry" />
        </mxCell>
        <mxCell id="iEkel0ebpZ4LdczcetA3-18" value="QuorumProposalValidated(proposal) &lt;br&gt;AND&lt;br&gt;OptimisticDACertificateValidated(certificate) AND&lt;br&gt;VIDShareValidated(share)" style="rounded=1;whiteSpace=wrap;html=1;fillColor=#fff2cc;strokeColor=#d6b656;arcSize=50;strokeWidth=2;" parent="1" vertex="1">
          <mxGeometry x="20" y="300" width="260" height="90" as="geometry" />
        </mxCell>
        <mxCell id="iEkel0ebpZ4LdczcetA3-19" style="edgeStyle=orthogonalEdgeStyle;rounded=0;orthogonalLoop=1;jettySize=auto;html=1;" parent="1" source="iEkel0ebpZ4LdczcetA3-21" target="iEkel0ebpZ4LdczcetA3-36" edge="1">
          <mxGeometry relative="1" as="geometry" />
        </mxCell>
        <mxCell id="iEkel0ebpZ4LdczcetA3-20" value="Yes" style="edgeLabel;html=1;align=center;verticalAlign=middle;resizable=0;points=[];" parent="iEkel0ebpZ4LdczcetA3-19" vertex="1" connectable="0">
          <mxGeometry x="-0.025" relative="1" as="geometry">
            <mxPoint as="offset" />
          </mxGeometry>
        </mxCell>
        <mxCell id="iEkel0ebpZ4LdczcetA3-21" value="Are share, proposal, and certificate for the same view" style="whiteSpace=wrap;html=1;rounded=0;fillColor=#dae8fc;strokeColor=#6c8ebf;strokeWidth=2;" parent="1" vertex="1">
          <mxGeometry x="90" y="450" width="120" height="60" as="geometry" />
        </mxCell>
        <mxCell id="iEkel0ebpZ4LdczcetA3-22" value="Internal error: data structures not for the same view" style="whiteSpace=wrap;html=1;fillColor=#f8cecc;strokeColor=#b85450;rounded=1;arcSize=50;verticalLabelPosition=bottom;verticalAlign=top;shape=mxgraph.flowchart.or;strokeWidth=6;" parent="1" vertex="1">
          <mxGeometry x="300" y="450" width="60" height="60" as="geometry" />
        </mxCell>
        <mxCell id="iEkel0ebpZ4LdczcetA3-23" style="edgeStyle=orthogonalEdgeStyle;rounded=0;orthogonalLoop=1;jettySize=auto;html=1;entryX=0;entryY=0.5;entryDx=0;entryDy=0;entryPerimeter=0;" parent="1" source="iEkel0ebpZ4LdczcetA3-21" target="iEkel0ebpZ4LdczcetA3-22" edge="1">
          <mxGeometry relative="1" as="geometry" />
        </mxCell>
        <mxCell id="iEkel0ebpZ4LdczcetA3-24" value="No" style="edgeLabel;html=1;align=center;verticalAlign=middle;resizable=0;points=[];" parent="iEkel0ebpZ4LdczcetA3-23" vertex="1" connectable="0">
          <mxGeometry x="-0.0444" relative="1" as="geometry">
            <mxPoint as="offset" />
          </mxGeometry>
        </mxCell>
        <mxCell id="iEkel0ebpZ4LdczcetA3-25" style="edgeStyle=orthogonalEdgeStyle;rounded=0;orthogonalLoop=1;jettySize=auto;html=1;" parent="1" source="iEkel0ebpZ4LdczcetA3-26" target="iEkel0ebpZ4LdczcetA3-33" edge="1">
          <mxGeometry relative="1" as="geometry" />
        </mxCell>
        <mxCell id="iEkel0ebpZ4LdczcetA3-26" value="QuorumVoteSend(vote)" style="whiteSpace=wrap;html=1;fillColor=#d5e8d4;strokeColor=#82b366;rounded=1;arcSize=50;strokeWidth=2;" parent="1" vertex="1">
          <mxGeometry x="27.5" y="1220" width="245" height="60" as="geometry" />
        </mxCell>
        <mxCell id="iEkel0ebpZ4LdczcetA3-27" style="edgeStyle=orthogonalEdgeStyle;rounded=0;orthogonalLoop=1;jettySize=auto;html=1;" parent="1" source="iEkel0ebpZ4LdczcetA3-31" target="iEkel0ebpZ4LdczcetA3-32" edge="1">
          <mxGeometry relative="1" as="geometry" />
        </mxCell>
        <mxCell id="iEkel0ebpZ4LdczcetA3-28" value="No" style="edgeLabel;html=1;align=center;verticalAlign=middle;resizable=0;points=[];" parent="iEkel0ebpZ4LdczcetA3-27" vertex="1" connectable="0">
          <mxGeometry x="-0.0444" relative="1" as="geometry">
            <mxPoint as="offset" />
          </mxGeometry>
        </mxCell>
        <mxCell id="PjIIG75P_no_RuA1P7Ou-2" style="edgeStyle=orthogonalEdgeStyle;rounded=0;orthogonalLoop=1;jettySize=auto;html=1;entryX=0.5;entryY=0;entryDx=0;entryDy=0;" edge="1" parent="1" source="iEkel0ebpZ4LdczcetA3-31" target="PjIIG75P_no_RuA1P7Ou-1">
          <mxGeometry relative="1" as="geometry" />
        </mxCell>
        <mxCell id="PjIIG75P_no_RuA1P7Ou-3" value="Yes" style="edgeLabel;html=1;align=center;verticalAlign=middle;resizable=0;points=[];" vertex="1" connectable="0" parent="PjIIG75P_no_RuA1P7Ou-2">
          <mxGeometry x="-0.0222" y="-1" relative="1" as="geometry">
            <mxPoint as="offset" />
          </mxGeometry>
        </mxCell>
        <mxCell id="iEkel0ebpZ4LdczcetA3-31" value="Does VID share commitment match proposal?" style="whiteSpace=wrap;html=1;rounded=0;fillColor=#dae8fc;strokeColor=#6c8ebf;strokeWidth=2;" parent="1" vertex="1">
          <mxGeometry x="90" y="730" width="120" height="60" as="geometry" />
        </mxCell>
        <mxCell id="iEkel0ebpZ4LdczcetA3-32" value="VID share does not commit to proposal" style="whiteSpace=wrap;html=1;fillColor=#f8cecc;strokeColor=#b85450;rounded=1;arcSize=50;verticalLabelPosition=bottom;verticalAlign=top;shape=mxgraph.flowchart.or;strokeWidth=6;" parent="1" vertex="1">
          <mxGeometry x="300" y="730" width="60" height="60" as="geometry" />
        </mxCell>
        <mxCell id="iEkel0ebpZ4LdczcetA3-33" value="Successfully voted" style="whiteSpace=wrap;html=1;fillColor=#d5e8d4;strokeColor=#82b366;rounded=1;arcSize=50;verticalLabelPosition=bottom;verticalAlign=top;shape=mxgraph.flowchart.or;strokeWidth=6;" parent="1" vertex="1">
          <mxGeometry x="120" y="1360" width="60" height="60" as="geometry" />
        </mxCell>
        <mxCell id="iEkel0ebpZ4LdczcetA3-34" style="edgeStyle=orthogonalEdgeStyle;rounded=0;orthogonalLoop=1;jettySize=auto;html=1;" parent="1" source="iEkel0ebpZ4LdczcetA3-36" target="iEkel0ebpZ4LdczcetA3-31" edge="1">
          <mxGeometry relative="1" as="geometry" />
        </mxCell>
        <mxCell id="iEkel0ebpZ4LdczcetA3-35" value="Yes" style="edgeLabel;html=1;align=center;verticalAlign=middle;resizable=0;points=[];" parent="iEkel0ebpZ4LdczcetA3-34" vertex="1" connectable="0">
          <mxGeometry x="-0.025" y="1" relative="1" as="geometry">
            <mxPoint as="offset" />
          </mxGeometry>
        </mxCell>
        <mxCell id="iEkel0ebpZ4LdczcetA3-36" value="Does proposal commitment in DA certificate match proposal?" style="whiteSpace=wrap;html=1;rounded=0;fillColor=#dae8fc;strokeColor=#6c8ebf;strokeWidth=2;" parent="1" vertex="1">
          <mxGeometry x="90" y="590" width="120" height="60" as="geometry" />
        </mxCell>
        <mxCell id="iEkel0ebpZ4LdczcetA3-37" value="DA cert commitment does not match proposal" style="whiteSpace=wrap;html=1;fillColor=#f8cecc;strokeColor=#b85450;rounded=1;arcSize=50;verticalLabelPosition=bottom;verticalAlign=top;shape=mxgraph.flowchart.or;strokeWidth=6;" parent="1" vertex="1">
          <mxGeometry x="300" y="590" width="60" height="60" as="geometry" />
        </mxCell>
        <mxCell id="iEkel0ebpZ4LdczcetA3-38" style="edgeStyle=orthogonalEdgeStyle;rounded=0;orthogonalLoop=1;jettySize=auto;html=1;entryX=0;entryY=0.5;entryDx=0;entryDy=0;entryPerimeter=0;" parent="1" source="iEkel0ebpZ4LdczcetA3-36" target="iEkel0ebpZ4LdczcetA3-37" edge="1">
          <mxGeometry relative="1" as="geometry" />
        </mxCell>
        <mxCell id="iEkel0ebpZ4LdczcetA3-39" value="No" style="edgeLabel;html=1;align=center;verticalAlign=middle;resizable=0;points=[];" parent="iEkel0ebpZ4LdczcetA3-38" vertex="1" connectable="0">
          <mxGeometry x="-0.0444" relative="1" as="geometry">
            <mxPoint as="offset" />
          </mxGeometry>
        </mxCell>
        <mxCell id="iEkel0ebpZ4LdczcetA3-40" style="edgeStyle=orthogonalEdgeStyle;rounded=0;orthogonalLoop=1;jettySize=auto;html=1;" parent="1" source="iEkel0ebpZ4LdczcetA3-44" target="iEkel0ebpZ4LdczcetA3-45" edge="1">
          <mxGeometry relative="1" as="geometry" />
        </mxCell>
        <mxCell id="iEkel0ebpZ4LdczcetA3-41" value="No" style="edgeLabel;html=1;align=center;verticalAlign=middle;resizable=0;points=[];" parent="iEkel0ebpZ4LdczcetA3-40" vertex="1" connectable="0">
          <mxGeometry x="-0.0667" y="1" relative="1" as="geometry">
            <mxPoint as="offset" />
          </mxGeometry>
        </mxCell>
        <mxCell id="iEkel0ebpZ4LdczcetA3-44" value="Do we have stake?" style="whiteSpace=wrap;html=1;rounded=0;fillColor=#dae8fc;strokeColor=#6c8ebf;strokeWidth=2;" parent="1" vertex="1">
          <mxGeometry x="90" y="1070" width="120" height="60" as="geometry" />
        </mxCell>
        <mxCell id="iEkel0ebpZ4LdczcetA3-45" value="Not voting because we don&#39;t have stake" style="whiteSpace=wrap;html=1;fillColor=#f8cecc;strokeColor=#b85450;rounded=1;arcSize=50;verticalLabelPosition=bottom;verticalAlign=top;shape=mxgraph.flowchart.or;strokeWidth=6;" parent="1" vertex="1">
          <mxGeometry x="300" y="1070" width="60" height="60" as="geometry" />
        </mxCell>
        <mxCell id="E6qUehOPSHpzRFjz0MYg-3" style="edgeStyle=orthogonalEdgeStyle;rounded=0;orthogonalLoop=1;jettySize=auto;html=1;" parent="1" target="iEkel0ebpZ4LdczcetA3-26" edge="1">
          <mxGeometry relative="1" as="geometry">
            <mxPoint x="150" y="1130" as="sourcePoint" />
          </mxGeometry>
        </mxCell>
        <mxCell id="PjIIG75P_no_RuA1P7Ou-6" value="Yes" style="edgeLabel;html=1;align=center;verticalAlign=middle;resizable=0;points=[];" vertex="1" connectable="0" parent="E6qUehOPSHpzRFjz0MYg-3">
          <mxGeometry x="-0.028" y="-1" relative="1" as="geometry">
            <mxPoint as="offset" />
          </mxGeometry>
        </mxCell>
        <mxCell id="PjIIG75P_no_RuA1P7Ou-4" style="edgeStyle=orthogonalEdgeStyle;rounded=0;orthogonalLoop=1;jettySize=auto;html=1;entryX=0.5;entryY=0;entryDx=0;entryDy=0;" edge="1" parent="1" source="PjIIG75P_no_RuA1P7Ou-1" target="iEkel0ebpZ4LdczcetA3-44">
          <mxGeometry relative="1" as="geometry" />
        </mxCell>
        <mxCell id="PjIIG75P_no_RuA1P7Ou-5" value="Yes" style="edgeLabel;html=1;align=center;verticalAlign=middle;resizable=0;points=[];" vertex="1" connectable="0" parent="PjIIG75P_no_RuA1P7Ou-4">
          <mxGeometry x="-0.0889" relative="1" as="geometry">
            <mxPoint as="offset" />
          </mxGeometry>
        </mxCell>
        <mxCell id="PjIIG75P_no_RuA1P7Ou-1" value="Mark all 3 dependencies as mutually verified" style="strokeWidth=2;html=1;shape=datastore;whiteSpace=wrap;labelPosition=center;verticalLabelPosition=middle;align=center;verticalAlign=top;fillColor=#ffe6cc;strokeColor=#d79b00;" vertex="1" parent="1">
          <mxGeometry x="105" y="880" width="90" height="100" as="geometry" />
        </mxCell>
      </root>
    </mxGraphModel>
  </diagram>
  <diagram id="yrMHWQc5ONRXMVSyyxe3" name="ViewChange">
    <mxGraphModel dx="1242" dy="818" grid="1" gridSize="10" guides="1" tooltips="1" connect="1" arrows="1" fold="1" page="1" pageScale="1" pageWidth="850" pageHeight="1100" math="0" shadow="0">
      <root>
        <mxCell id="0" />
        <mxCell id="1" parent="0" />
        <mxCell id="aIZW1uHFZlO3QgrAksHr-2" value="&lt;h1 style=&quot;line-height: 100%;&quot;&gt;ViewChange&lt;/h1&gt;&lt;p style=&quot;line-height: 100%;&quot;&gt;Updates the latest known view and resets the view timeout timer&lt;/p&gt;" style="text;html=1;strokeColor=none;fillColor=none;spacing=5;spacingTop=-20;whiteSpace=wrap;overflow=hidden;rounded=0;" parent="1" vertex="1">
          <mxGeometry x="40" y="40" width="350" height="70" as="geometry" />
        </mxCell>
        <mxCell id="aIZW1uHFZlO3QgrAksHr-3" value="" style="endArrow=none;html=1;rounded=0;" parent="1" edge="1">
          <mxGeometry width="50" height="50" relative="1" as="geometry">
            <mxPoint x="40" y="120" as="sourcePoint" />
            <mxPoint x="800" y="120" as="targetPoint" />
          </mxGeometry>
        </mxCell>
        <mxCell id="aIZW1uHFZlO3QgrAksHr-4" value="&lt;b&gt;Task Storage&lt;/b&gt;" style="swimlane;fontStyle=0;childLayout=stackLayout;horizontal=1;startSize=30;horizontalStack=0;resizeParent=1;resizeParentMax=0;resizeLast=0;collapsible=1;marginBottom=0;whiteSpace=wrap;html=1;" parent="1" vertex="1">
          <mxGeometry x="40" y="140" width="160" height="120" as="geometry">
            <mxRectangle x="40" y="140" width="60" height="30" as="alternateBounds" />
          </mxGeometry>
        </mxCell>
        <mxCell id="aIZW1uHFZlO3QgrAksHr-5" value="s" style="text;strokeColor=none;fillColor=none;align=left;verticalAlign=middle;spacingLeft=4;spacingRight=4;overflow=hidden;points=[[0,0.5],[1,0.5]];portConstraint=eastwest;rotatable=0;whiteSpace=wrap;html=1;" parent="aIZW1uHFZlO3QgrAksHr-4" vertex="1">
          <mxGeometry y="30" width="160" height="30" as="geometry" />
        </mxCell>
        <mxCell id="aIZW1uHFZlO3QgrAksHr-6" value="Item 2" style="text;strokeColor=none;fillColor=none;align=left;verticalAlign=middle;spacingLeft=4;spacingRight=4;overflow=hidden;points=[[0,0.5],[1,0.5]];portConstraint=eastwest;rotatable=0;whiteSpace=wrap;html=1;" parent="aIZW1uHFZlO3QgrAksHr-4" vertex="1">
          <mxGeometry y="60" width="160" height="30" as="geometry" />
        </mxCell>
        <mxCell id="aIZW1uHFZlO3QgrAksHr-7" value="Item 3" style="text;strokeColor=none;fillColor=none;align=left;verticalAlign=middle;spacingLeft=4;spacingRight=4;overflow=hidden;points=[[0,0.5],[1,0.5]];portConstraint=eastwest;rotatable=0;whiteSpace=wrap;html=1;" parent="aIZW1uHFZlO3QgrAksHr-4" vertex="1">
          <mxGeometry y="90" width="160" height="30" as="geometry" />
        </mxCell>
        <mxCell id="aIZW1uHFZlO3QgrAksHr-8" value="&lt;b&gt;Possible Outputs&lt;/b&gt;" style="swimlane;fontStyle=0;childLayout=stackLayout;horizontal=1;startSize=30;horizontalStack=0;resizeParent=1;resizeParentMax=0;resizeLast=0;collapsible=1;marginBottom=0;whiteSpace=wrap;html=1;" parent="1" vertex="1">
          <mxGeometry x="240" y="140" width="160" height="120" as="geometry" />
        </mxCell>
        <mxCell id="aIZW1uHFZlO3QgrAksHr-9" value="Item 1" style="text;strokeColor=none;fillColor=none;align=left;verticalAlign=middle;spacingLeft=4;spacingRight=4;overflow=hidden;points=[[0,0.5],[1,0.5]];portConstraint=eastwest;rotatable=0;whiteSpace=wrap;html=1;" parent="aIZW1uHFZlO3QgrAksHr-8" vertex="1">
          <mxGeometry y="30" width="160" height="30" as="geometry" />
        </mxCell>
        <mxCell id="aIZW1uHFZlO3QgrAksHr-10" value="Item 2" style="text;strokeColor=none;fillColor=none;align=left;verticalAlign=middle;spacingLeft=4;spacingRight=4;overflow=hidden;points=[[0,0.5],[1,0.5]];portConstraint=eastwest;rotatable=0;whiteSpace=wrap;html=1;" parent="aIZW1uHFZlO3QgrAksHr-8" vertex="1">
          <mxGeometry y="60" width="160" height="30" as="geometry" />
        </mxCell>
        <mxCell id="aIZW1uHFZlO3QgrAksHr-11" value="Item 3" style="text;strokeColor=none;fillColor=none;align=left;verticalAlign=middle;spacingLeft=4;spacingRight=4;overflow=hidden;points=[[0,0.5],[1,0.5]];portConstraint=eastwest;rotatable=0;whiteSpace=wrap;html=1;" parent="aIZW1uHFZlO3QgrAksHr-8" vertex="1">
          <mxGeometry y="90" width="160" height="30" as="geometry" />
        </mxCell>
        <mxCell id="aIZW1uHFZlO3QgrAksHr-12" value="&lt;b&gt;Possible Spawning Tasks&lt;/b&gt;" style="swimlane;fontStyle=0;childLayout=stackLayout;horizontal=1;startSize=30;horizontalStack=0;resizeParent=1;resizeParentMax=0;resizeLast=0;collapsible=1;marginBottom=0;whiteSpace=wrap;html=1;" parent="1" vertex="1">
          <mxGeometry x="440" y="140" width="160" height="120" as="geometry" />
        </mxCell>
        <mxCell id="aIZW1uHFZlO3QgrAksHr-13" value="Item 1" style="text;strokeColor=none;fillColor=none;align=left;verticalAlign=middle;spacingLeft=4;spacingRight=4;overflow=hidden;points=[[0,0.5],[1,0.5]];portConstraint=eastwest;rotatable=0;whiteSpace=wrap;html=1;" parent="aIZW1uHFZlO3QgrAksHr-12" vertex="1">
          <mxGeometry y="30" width="160" height="30" as="geometry" />
        </mxCell>
        <mxCell id="aIZW1uHFZlO3QgrAksHr-14" value="Item 2" style="text;strokeColor=none;fillColor=none;align=left;verticalAlign=middle;spacingLeft=4;spacingRight=4;overflow=hidden;points=[[0,0.5],[1,0.5]];portConstraint=eastwest;rotatable=0;whiteSpace=wrap;html=1;" parent="aIZW1uHFZlO3QgrAksHr-12" vertex="1">
          <mxGeometry y="60" width="160" height="30" as="geometry" />
        </mxCell>
        <mxCell id="aIZW1uHFZlO3QgrAksHr-15" value="Item 3" style="text;strokeColor=none;fillColor=none;align=left;verticalAlign=middle;spacingLeft=4;spacingRight=4;overflow=hidden;points=[[0,0.5],[1,0.5]];portConstraint=eastwest;rotatable=0;whiteSpace=wrap;html=1;" parent="aIZW1uHFZlO3QgrAksHr-12" vertex="1">
          <mxGeometry y="90" width="160" height="30" as="geometry" />
        </mxCell>
        <mxCell id="aIZW1uHFZlO3QgrAksHr-16" value="" style="endArrow=none;html=1;rounded=0;" parent="1" edge="1">
          <mxGeometry width="50" height="50" relative="1" as="geometry">
            <mxPoint x="40" y="280" as="sourcePoint" />
            <mxPoint x="800" y="280" as="targetPoint" />
          </mxGeometry>
        </mxCell>
        <mxCell id="aIZW1uHFZlO3QgrAksHr-17" style="edgeStyle=orthogonalEdgeStyle;rounded=0;orthogonalLoop=1;jettySize=auto;html=1;entryX=0.5;entryY=0;entryDx=0;entryDy=0;" parent="1" source="aIZW1uHFZlO3QgrAksHr-18" target="aIZW1uHFZlO3QgrAksHr-21" edge="1">
          <mxGeometry relative="1" as="geometry" />
        </mxCell>
        <mxCell id="aIZW1uHFZlO3QgrAksHr-18" value="ViewChange(view)" style="rounded=1;whiteSpace=wrap;html=1;fillColor=#fff2cc;strokeColor=#d6b656;arcSize=50;strokeWidth=2;" parent="1" vertex="1">
          <mxGeometry x="40" y="320" width="220" height="60" as="geometry" />
        </mxCell>
        <mxCell id="aIZW1uHFZlO3QgrAksHr-19" value="" style="edgeStyle=orthogonalEdgeStyle;rounded=0;orthogonalLoop=1;jettySize=auto;html=1;" parent="1" source="aIZW1uHFZlO3QgrAksHr-21" target="vzdoVDvZi0i_vjOquVPE-1" edge="1">
          <mxGeometry relative="1" as="geometry">
            <mxPoint x="150" y="590" as="targetPoint" />
          </mxGeometry>
        </mxCell>
        <mxCell id="aIZW1uHFZlO3QgrAksHr-20" value="Yes" style="edgeLabel;html=1;align=center;verticalAlign=middle;resizable=0;points=[];" parent="aIZW1uHFZlO3QgrAksHr-19" vertex="1" connectable="0">
          <mxGeometry x="-0.1" relative="1" as="geometry">
            <mxPoint as="offset" />
          </mxGeometry>
        </mxCell>
        <mxCell id="aIZW1uHFZlO3QgrAksHr-21" value="Is view greater than our latest known view?" style="whiteSpace=wrap;html=1;rounded=0;fillColor=#dae8fc;strokeColor=#6c8ebf;strokeWidth=2;" parent="1" vertex="1">
          <mxGeometry x="90" y="450" width="120" height="60" as="geometry" />
        </mxCell>
        <mxCell id="aIZW1uHFZlO3QgrAksHr-22" value="View is too old" style="whiteSpace=wrap;html=1;fillColor=#f8cecc;strokeColor=#b85450;rounded=1;arcSize=50;verticalLabelPosition=bottom;verticalAlign=top;shape=mxgraph.flowchart.or;strokeWidth=6;" parent="1" vertex="1">
          <mxGeometry x="300" y="450" width="60" height="60" as="geometry" />
        </mxCell>
        <mxCell id="aIZW1uHFZlO3QgrAksHr-23" style="edgeStyle=orthogonalEdgeStyle;rounded=0;orthogonalLoop=1;jettySize=auto;html=1;entryX=0;entryY=0.5;entryDx=0;entryDy=0;entryPerimeter=0;" parent="1" source="aIZW1uHFZlO3QgrAksHr-21" target="aIZW1uHFZlO3QgrAksHr-22" edge="1">
          <mxGeometry relative="1" as="geometry" />
        </mxCell>
        <mxCell id="aIZW1uHFZlO3QgrAksHr-24" value="No" style="edgeLabel;html=1;align=center;verticalAlign=middle;resizable=0;points=[];" parent="aIZW1uHFZlO3QgrAksHr-23" vertex="1" connectable="0">
          <mxGeometry x="-0.0444" relative="1" as="geometry">
            <mxPoint as="offset" />
          </mxGeometry>
        </mxCell>
        <mxCell id="NDWb9oi_mlVhKm_n3Hzo-4" style="edgeStyle=orthogonalEdgeStyle;rounded=0;orthogonalLoop=1;jettySize=auto;html=1;entryX=0.5;entryY=0;entryDx=0;entryDy=0;" parent="1" source="vzdoVDvZi0i_vjOquVPE-1" target="NDWb9oi_mlVhKm_n3Hzo-5" edge="1">
          <mxGeometry relative="1" as="geometry">
            <mxPoint x="150" y="760" as="targetPoint" />
          </mxGeometry>
        </mxCell>
        <mxCell id="vzdoVDvZi0i_vjOquVPE-1" value="Update our latest known view to view" style="strokeWidth=2;html=1;shape=datastore;whiteSpace=wrap;labelPosition=center;verticalLabelPosition=middle;align=center;verticalAlign=top;fillColor=#ffe6cc;strokeColor=#d79b00;" parent="1" vertex="1">
          <mxGeometry x="105" y="590" width="90" height="100" as="geometry" />
        </mxCell>
        <mxCell id="NDWb9oi_mlVhKm_n3Hzo-1" value="Spawn new timeout task for this view" style="whiteSpace=wrap;html=1;rounded=0;fillColor=#e1d5e7;strokeColor=#9673a6;strokeWidth=2;shape=process;backgroundOutline=1;" parent="1" vertex="1">
          <mxGeometry x="90" y="910" width="120" height="60" as="geometry" />
        </mxCell>
        <mxCell id="NDWb9oi_mlVhKm_n3Hzo-2" value="" style="html=1;verticalLabelPosition=bottom;align=center;labelBackgroundColor=#ffffff;verticalAlign=top;strokeWidth=2;strokeColor=#0080F0;shadow=0;dashed=0;shape=mxgraph.ios7.icons.add;" parent="1" vertex="1">
          <mxGeometry x="77.75" y="900" width="30" height="30" as="geometry" />
        </mxCell>
        <mxCell id="NDWb9oi_mlVhKm_n3Hzo-7" style="edgeStyle=orthogonalEdgeStyle;rounded=0;orthogonalLoop=1;jettySize=auto;html=1;" parent="1" source="NDWb9oi_mlVhKm_n3Hzo-5" target="NDWb9oi_mlVhKm_n3Hzo-1" edge="1">
          <mxGeometry relative="1" as="geometry" />
        </mxCell>
        <mxCell id="NDWb9oi_mlVhKm_n3Hzo-5" value="Cancel in progress timeout tasks" style="whiteSpace=wrap;html=1;rounded=0;fillColor=#e1d5e7;strokeColor=#9673a6;strokeWidth=2;shape=process;backgroundOutline=1;" parent="1" vertex="1">
          <mxGeometry x="90" y="770" width="120" height="60" as="geometry" />
        </mxCell>
        <mxCell id="NDWb9oi_mlVhKm_n3Hzo-6" value="" style="html=1;verticalLabelPosition=bottom;align=center;labelBackgroundColor=#ffffff;verticalAlign=top;strokeWidth=2;strokeColor=#0080F0;shadow=0;dashed=0;shape=mxgraph.ios7.icons.add;" parent="1" vertex="1">
          <mxGeometry x="77.75" y="760" width="30" height="30" as="geometry" />
        </mxCell>
        <mxCell id="NDWb9oi_mlVhKm_n3Hzo-8" value="Are we the leader of view, view + 1, or view + 2?" style="whiteSpace=wrap;html=1;rounded=0;fillColor=#dae8fc;strokeColor=#6c8ebf;strokeWidth=2;" parent="1" vertex="1">
          <mxGeometry x="90" y="1050" width="120" height="60" as="geometry" />
        </mxCell>
        <mxCell id="NDWb9oi_mlVhKm_n3Hzo-9" value="Have we requested a block from the builder?" style="whiteSpace=wrap;html=1;rounded=0;fillColor=#dae8fc;strokeColor=#6c8ebf;strokeWidth=2;" parent="1" vertex="1">
          <mxGeometry x="90" y="1190" width="120" height="60" as="geometry" />
        </mxCell>
        <mxCell id="NDWb9oi_mlVhKm_n3Hzo-10" value="Request block from builder" style="whiteSpace=wrap;html=1;rounded=0;fillColor=#e1d5e7;strokeColor=#9673a6;strokeWidth=2;shape=process;backgroundOutline=1;" parent="1" vertex="1">
          <mxGeometry x="292.25" y="1190" width="120" height="60" as="geometry" />
        </mxCell>
        <mxCell id="NDWb9oi_mlVhKm_n3Hzo-11" value="" style="html=1;verticalLabelPosition=bottom;align=center;labelBackgroundColor=#ffffff;verticalAlign=top;strokeWidth=2;strokeColor=#0080F0;shadow=0;dashed=0;shape=mxgraph.ios7.icons.add;" parent="1" vertex="1">
          <mxGeometry x="280" y="1180" width="30" height="30" as="geometry" />
        </mxCell>
      </root>
    </mxGraphModel>
  </diagram>
</mxfile>
